<svg width="30" height="20" viewBox="0 0 30 20" fill="none" xmlns="http://www.w3.org/2000/svg">
<path d="M29.932 0H0V20H29.932V0Z" fill="white"/>
<path d="M0 5.94853V11.0201H29.932V9.56657H11.9728V8.11449H29.932V6.68959H11.9728V5.20747H29.932V3.78257H11.9728V2.33049H29.932V0.876984H0V5.94853ZM0 13.186V13.8985H29.932V12.4736H0V13.186ZM0 16.0916V16.8041H29.932V15.3792H0V16.0916ZM0 18.9829V19.7097H29.932V18.2562H0V18.9829Z" fill="#B31C31"/>
<path d="M0 11.0201H14.3062V0.290436H0" fill="#39386E"/>
<path d="M0 5.94849V16.0915V5.94849ZM1.26037 1.51932L1.32475 1.71531H1.74392L1.58512 1.83262C1.49785 1.897 1.42632 1.96424 1.42632 1.9814C1.42632 2.00143 1.45207 2.08727 1.48212 2.1774C1.51216 2.26753 1.53791 2.34478 1.53791 2.3505C1.53791 2.35623 1.46495 2.31188 1.37625 2.25036C1.28755 2.18598 1.20315 2.13591 1.18884 2.13591C1.1774 2.13591 1.10014 2.18598 1.01574 2.2475C0.851216 2.37625 0.839771 2.36195 0.924177 2.1216C0.95422 2.03291 0.971388 1.95136 0.957081 1.94278C0.945637 1.93419 0.872675 1.88126 0.798283 1.82833L0.658083 1.73105L0.8598 1.72246L1.06152 1.71388L1.12589 1.52075C1.1588 1.41202 1.19027 1.32475 1.19313 1.32475C1.19599 1.32475 1.22604 1.41059 1.26037 1.51932ZM6.29471 1.72103L6.49642 1.72962L6.34335 1.83834C6.25894 1.89986 6.18741 1.94993 6.18455 1.95279C6.17883 1.95565 6.20458 2.0372 6.23462 2.13162C6.26752 2.22604 6.28755 2.31331 6.27897 2.32189C6.26752 2.33047 6.20029 2.29185 6.12589 2.23462C6.0515 2.1774 5.97568 2.13448 5.96137 2.13448C5.94707 2.13448 5.86981 2.18455 5.78541 2.24607C5.70386 2.30758 5.63233 2.35193 5.62661 2.34907C5.62089 2.34335 5.64378 2.26467 5.67382 2.17597C5.70386 2.08727 5.72961 1.99714 5.72961 1.97711C5.72961 1.95708 5.65665 1.88985 5.57082 1.82833L5.40916 1.71388H5.83119L5.89843 1.5093L5.9628 1.30759L6.03004 1.5093L6.09728 1.71102L6.29471 1.72103ZM8.41345 1.51932L8.47782 1.71531H8.897L8.7382 1.83262C8.65093 1.897 8.5794 1.96424 8.5794 1.9814C8.5794 2.00143 8.60515 2.08727 8.63519 2.1774C8.66523 2.26753 8.69099 2.34478 8.69099 2.3505C8.69099 2.35623 8.61802 2.31188 8.52933 2.25036C8.44063 2.18598 8.35622 2.13591 8.34192 2.13591C8.33047 2.13591 8.25322 2.18598 8.16881 2.2475C8.00429 2.37625 7.99285 2.36195 8.07725 2.1216C8.1073 2.03291 8.12446 1.95136 8.11016 1.94278C8.09871 1.93419 8.02575 1.88126 7.95136 1.82833L7.81116 1.73105L8.01287 1.72246L8.21459 1.71388L8.27897 1.52075C8.31187 1.41202 8.34335 1.32475 8.34621 1.32475C8.34907 1.32475 8.37911 1.41059 8.41345 1.51932ZM13.4478 1.72103L13.6495 1.72962L13.4964 1.83834C13.412 1.89986 13.3405 1.94993 13.3376 1.95279C13.3319 1.95565 13.3577 2.0372 13.3877 2.13162C13.4206 2.22604 13.4406 2.31331 13.432 2.32189C13.4206 2.33047 13.3534 2.29185 13.279 2.23462C13.2031 2.17883 13.1288 2.13448 13.1144 2.13448C13.1001 2.13448 13.0229 2.18455 12.9385 2.24607C12.8569 2.30758 12.7854 2.35193 12.7797 2.34907C12.774 2.34335 12.7969 2.26467 12.8269 2.17597C12.8569 2.08727 12.8827 1.99714 12.8827 1.97711C12.8827 1.95708 12.8097 1.88985 12.7239 1.82833L12.5622 1.71388H12.9843L13.0515 1.5093L13.1159 1.30759L13.1831 1.5093L13.2504 1.71102L13.4478 1.72103ZM3.6495 1.52504L3.70529 1.701L3.90987 1.71531L4.11445 1.72962L3.97997 1.8269C3.90701 1.87983 3.83405 1.93276 3.82117 1.94135C3.80401 1.95279 3.82117 2.03863 3.85694 2.14593C3.88984 2.24893 3.91273 2.33906 3.90701 2.34478C3.90129 2.3505 3.83119 2.30615 3.75393 2.24464C3.67239 2.18598 3.59514 2.13591 3.57797 2.13591C3.5608 2.13591 3.48069 2.18598 3.402 2.2475C3.32046 2.30615 3.25322 2.34764 3.24893 2.3362C3.24607 2.32189 3.26896 2.24178 3.299 2.14879C3.32904 2.05866 3.35479 1.97854 3.35479 1.9671C3.35479 1.95565 3.28183 1.89986 3.19599 1.83834L3.0372 1.72962L3.24463 1.71531L3.45207 1.701L3.50787 1.52504C3.53791 1.43062 3.57225 1.35194 3.58083 1.35194C3.58941 1.35194 3.61803 1.43062 3.6495 1.52504ZM10.8026 1.52504L10.8584 1.701L11.0629 1.71531L11.2675 1.72962L11.133 1.8269C11.0601 1.87983 10.9871 1.93276 10.9742 1.94135C10.9571 1.95279 10.9742 2.03863 11.01 2.14593C11.0429 2.24893 11.0658 2.33906 11.0601 2.34478C11.0544 2.3505 10.9843 2.30615 10.907 2.24464C10.8255 2.18598 10.7482 2.13591 10.731 2.13591C10.7139 2.13591 10.6338 2.18598 10.5551 2.2475C10.4735 2.30615 10.4063 2.34764 10.402 2.3362C10.3991 2.32189 10.422 2.24178 10.4521 2.14879C10.4821 2.05866 10.5079 1.97854 10.5079 1.9671C10.5079 1.95565 10.4349 1.89986 10.3491 1.83834L10.1903 1.72962L10.3977 1.71531L10.6051 1.701L10.6609 1.52504C10.691 1.43062 10.7253 1.35194 10.7339 1.35194C10.7425 1.35194 10.7711 1.43062 10.8026 1.52504ZM2.73247 2.72103H2.94421L2.77396 2.84979L2.60086 2.97568L2.64235 3.1073C2.73104 3.39485 2.73391 3.38627 2.58655 3.27754C2.51645 3.22461 2.43777 3.17167 2.41917 3.15737C2.39056 3.13734 2.33476 3.16309 2.22318 3.24607C2.13877 3.31044 2.06438 3.36338 2.05579 3.36338C2.04721 3.36338 2.06724 3.29328 2.09728 3.20458C2.12589 3.11731 2.15021 3.02575 2.15021 3C2.15021 2.97425 2.07725 2.90558 1.99142 2.84406L1.83262 2.73534L2.04149 2.72675L2.25036 2.71817L2.3176 2.51645L2.38197 2.31474L2.44921 2.51645L2.51931 2.72103H2.73247ZM4.83691 2.52504L4.90129 2.71817L5.10873 2.72675L5.31617 2.73534L5.16023 2.84693C5.07582 2.90844 5.00429 2.97854 5.00429 3.00286C5.00429 3.02718 5.03004 3.11731 5.05722 3.20458C5.08727 3.29328 5.1073 3.36338 5.09871 3.36338C5.09013 3.36338 5.01431 3.31044 4.93133 3.24607L4.77825 3.13162L4.60801 3.25179C4.41774 3.3834 4.42632 3.39485 4.51359 3.10587L4.55508 2.97425L4.38197 2.84836L4.21173 2.7196H4.63519L4.69671 2.52361C4.73247 2.41488 4.76395 2.32761 4.76681 2.32761C4.77253 2.33047 4.80257 2.41631 4.83691 2.52504ZM9.88555 2.72103H10.0973L9.92704 2.84979L9.75393 2.97568L9.79542 3.1073C9.88555 3.39485 9.88698 3.38627 9.73963 3.27754C9.66953 3.22461 9.59084 3.17167 9.57224 3.15737C9.54363 3.13734 9.48784 3.16309 9.37625 3.24607C9.29185 3.31044 9.21745 3.36338 9.20887 3.36338C9.20029 3.36338 9.22031 3.29328 9.25036 3.20458C9.27897 3.11731 9.30329 3.02575 9.30329 3C9.30329 2.97425 9.23033 2.90558 9.14449 2.84406L8.98569 2.73534L9.19456 2.72675L9.40343 2.71817L9.47067 2.51645L9.53505 2.31474L9.60229 2.51645L9.67239 2.72103H9.88555ZM11.99 2.52504L12.0544 2.71817L12.2618 2.72675L12.4692 2.73534L12.3133 2.84693C12.2289 2.90844 12.1574 2.97854 12.1574 3.00286C12.1574 3.02718 12.1831 3.11731 12.2103 3.20458C12.2403 3.29328 12.2604 3.36338 12.2518 3.36338C12.2432 3.36338 12.1674 3.31044 12.0844 3.24607L11.9313 3.13162L11.7611 3.25179C11.5708 3.3834 11.5794 3.39485 11.6667 3.10587L11.7082 2.97425L11.535 2.84836L11.3648 2.7196H11.7883L11.8498 2.52361C11.8855 2.41488 11.917 2.32761 11.9199 2.32761C11.9256 2.33047 11.9556 2.41631 11.99 2.52504ZM7.22604 2.53076L7.28183 2.70673L7.48927 2.72103L7.69671 2.73534L7.53791 2.85551C7.45064 2.91989 7.37911 2.98426 7.37911 2.99857C7.37911 3.01002 7.40486 3.09299 7.43491 3.18312C7.46495 3.27325 7.48784 3.3505 7.48212 3.35622C7.47639 3.35908 7.40343 3.31474 7.32332 3.25322C7.23891 3.1917 7.16738 3.14163 7.1588 3.14163C7.15021 3.14163 7.07153 3.1917 6.99142 3.25322C6.90701 3.31474 6.83548 3.35908 6.82976 3.35336C6.82403 3.3505 6.84692 3.27182 6.87697 3.18312C6.90701 3.09442 6.93276 3.00715 6.93276 2.98999C6.9299 2.97282 6.8598 2.90844 6.7711 2.84693L6.6123 2.73534L6.81974 2.72103L7.02861 2.70673L7.08441 2.53076C7.11445 2.43634 7.14878 2.35766 7.15737 2.35766C7.16166 2.35766 7.19456 2.43634 7.22604 2.53076ZM1.27182 3.55937L1.32189 3.72675H1.53362L1.74535 3.72961L1.65093 3.80544C1.598 3.84692 1.52217 3.90844 1.48355 3.94277L1.41059 4.00143L1.4721 4.18598C1.50501 4.28612 1.52504 4.37053 1.51645 4.37053C1.51073 4.37053 1.43205 4.32046 1.34907 4.25894L1.19313 4.14735L1.04006 4.25894C0.95279 4.32046 0.878398 4.3648 0.872675 4.35622C0.864091 4.34764 0.914163 4.16881 0.969957 4.0186C0.97568 4.00429 0.902718 3.93419 0.808298 3.86552L0.638054 3.74249L0.846924 3.7339L1.05866 3.72532L1.11731 3.54649C1.15021 3.44635 1.18741 3.37053 1.19886 3.37625C1.2103 3.3834 1.2432 3.46495 1.27182 3.55937ZM3.6495 3.53648L3.70529 3.71245L3.90701 3.72103C4.0186 3.72675 4.10873 3.7382 4.10873 3.74964C4.10587 3.76109 4.03863 3.81688 3.95565 3.87554C3.87267 3.93419 3.80257 3.98998 3.80257 4.00429C3.80257 4.01574 3.82833 4.09871 3.85837 4.18884C3.88841 4.27897 3.90844 4.35622 3.90272 4.3648C3.89413 4.37053 3.82117 4.32332 3.73534 4.25894L3.58226 4.14163L3.42632 4.25894C3.33906 4.32332 3.26466 4.37053 3.25608 4.3648C3.25036 4.35622 3.27039 4.27754 3.30043 4.18884C3.33047 4.10014 3.35622 4.0186 3.35622 4.00715C3.35622 3.99571 3.28326 3.93133 3.19742 3.86409L3.03577 3.74106L3.2432 3.72675L3.45207 3.71245L3.50787 3.53648C3.53791 3.44206 3.57225 3.36338 3.58083 3.36338C3.58941 3.36338 3.61803 3.44206 3.6495 3.53648ZM6.03576 3.54506L6.09442 3.72389L6.30901 3.73247L6.5236 3.74106L6.34764 3.86409C6.25036 3.93419 6.1774 4.00143 6.18312 4.01717C6.23891 4.16738 6.28898 4.34621 6.2804 4.35479C6.27468 4.36337 6.19885 4.31903 6.11588 4.25751L5.95994 4.14878L5.80973 4.25751C5.72532 4.31903 5.65093 4.3691 5.63948 4.3691C5.6309 4.3691 5.64807 4.28469 5.68097 4.18455L5.74249 4L5.66953 3.94134C5.6309 3.90844 5.55508 3.84692 5.50215 3.804L5.40772 3.72818L5.61946 3.72532H5.83119L5.86409 3.60801C5.91416 3.44921 5.9485 3.36195 5.96137 3.36195C5.96853 3.36338 6.00143 3.44492 6.03576 3.54506ZM8.42489 3.55937L8.47496 3.72675H8.6867L8.89843 3.72961L8.80401 3.80544C8.75107 3.84692 8.67525 3.90844 8.63662 3.94277L8.56366 4.00143L8.62518 4.18598C8.65808 4.28612 8.67811 4.37053 8.66953 4.37053C8.66381 4.37053 8.58512 4.32046 8.50214 4.25894L8.34621 4.14735L8.19313 4.25894C8.10586 4.32046 8.03147 4.3648 8.02575 4.35622C8.01717 4.34764 8.06724 4.16881 8.12303 4.0186C8.12875 4.00429 8.05579 3.93419 7.96137 3.86552L7.79113 3.74249L8 3.7339L8.21173 3.72532L8.27038 3.54649C8.30329 3.44635 8.34049 3.37053 8.35193 3.37625C8.36338 3.3834 8.39628 3.46495 8.42489 3.55937ZM10.8026 3.53648L10.8584 3.71245L11.0601 3.72103C11.1717 3.72675 11.2618 3.7382 11.2618 3.74964C11.2589 3.76109 11.1917 3.81688 11.1087 3.87554C11.0258 3.93419 10.9556 3.98998 10.9556 4.00429C10.9556 4.01574 10.9814 4.09871 11.0114 4.18884C11.0415 4.27897 11.0615 4.35622 11.0558 4.3648C11.0472 4.37053 10.9742 4.32332 10.8884 4.25894L10.7353 4.14163L10.5794 4.25894C10.4921 4.32332 10.4177 4.37053 10.4092 4.3648C10.4034 4.35622 10.4235 4.27754 10.4535 4.18884C10.4835 4.10014 10.5093 4.0186 10.5093 4.00715C10.5093 3.99571 10.4363 3.93133 10.3505 3.86409L10.1888 3.74106L10.3963 3.72675L10.6051 3.71245L10.6609 3.53648C10.691 3.44206 10.7253 3.36338 10.7339 3.36338C10.7425 3.36338 10.7711 3.44206 10.8026 3.53648ZM13.1888 3.54506L13.2475 3.72389L13.4621 3.73247L13.6767 3.74106L13.5007 3.86409C13.4034 3.93419 13.3305 4.00143 13.3362 4.01717C13.392 4.16738 13.4421 4.34621 13.4335 4.35479C13.4278 4.36337 13.3519 4.31903 13.269 4.25751L13.113 4.14878L12.9628 4.25751C12.8784 4.31903 12.804 4.3691 12.7926 4.3691C12.784 4.3691 12.8011 4.28469 12.834 4.18455L12.8956 4L12.8226 3.94134C12.784 3.90844 12.7082 3.84692 12.6552 3.804L12.5608 3.72818L12.7725 3.72532H12.9843L13.0172 3.60801C13.0672 3.44921 13.1016 3.36195 13.1144 3.36195C13.1216 3.36338 13.1545 3.44492 13.1888 3.54506ZM2.71817 4.76681L2.91989 4.77539L2.77969 4.87267C2.70386 4.9256 2.6309 4.97854 2.62089 4.98712C2.60944 4.9957 2.62661 5.07868 2.65665 5.17739C2.68956 5.27181 2.70958 5.35908 2.701 5.3648C2.69242 5.37339 2.6166 5.3319 2.53648 5.27038L2.38627 5.16166L2.22175 5.28183C2.13019 5.3462 2.0515 5.39628 2.04864 5.39341C2.04292 5.38769 2.06581 5.31187 2.09585 5.22317C2.12589 5.13447 2.15164 5.04435 2.15164 5.02432C2.15164 5.00429 2.08154 4.93705 1.99571 4.87553L1.83977 4.76395L2.04721 4.75536L2.25179 4.74678L2.3133 4.56509C2.34621 4.46495 2.37768 4.37768 2.37768 4.3691C2.38054 4.36051 2.41345 4.44492 2.45064 4.55651L2.52074 4.75822L2.71817 4.76681ZM4.84549 4.57081L4.90415 4.74678L5.11159 4.75536L5.32046 4.76395L5.16166 4.87553C5.07439 4.93705 5.00286 5.00429 5.00286 5.02432C5.00286 5.04435 5.02861 5.13304 5.05865 5.22317C5.0887 5.3133 5.11445 5.39055 5.11445 5.39628C5.11445 5.402 5.03576 5.35193 4.94134 5.28469L4.76824 5.15879L4.61803 5.27038C4.53648 5.3319 4.46209 5.37339 4.4535 5.3648C4.44492 5.35908 4.46495 5.27324 4.49785 5.17739C4.5279 5.08011 4.54506 4.9957 4.53362 4.98712C4.51931 4.97854 4.44921 4.9256 4.37768 4.87267L4.2432 4.77539L4.4392 4.76681L4.63805 4.75822L4.69957 4.56509C4.73534 4.45923 4.76967 4.37768 4.77539 4.3834C4.78112 4.39199 4.81116 4.47639 4.84549 4.57081ZM7.22318 4.55937L7.27897 4.74678L7.48641 4.76108L7.69385 4.77539L7.53505 4.88412C7.44778 4.94277 7.37911 5.00143 7.37911 5.01287C7.37911 5.02432 7.40486 5.10443 7.43491 5.19456C7.46495 5.28469 7.4907 5.36766 7.4907 5.38197C7.4907 5.39628 7.42346 5.35622 7.34192 5.29327C7.25751 5.23176 7.1774 5.18168 7.15737 5.18168C7.1402 5.18168 7.05722 5.23176 6.97282 5.29327C6.88841 5.35479 6.81974 5.39628 6.81974 5.38197C6.81974 5.36766 6.84549 5.28469 6.87554 5.19456C6.90558 5.10443 6.93133 5.02432 6.93133 5.01287C6.93133 5.00143 6.86123 4.94277 6.77539 4.88412L6.61659 4.77539L6.82403 4.76108L7.03147 4.74678L7.08727 4.55937C7.11731 4.4535 7.14878 4.3691 7.15737 4.3691C7.16595 4.3691 7.1917 4.4535 7.22318 4.55937ZM9.87124 4.76681L10.073 4.77539L9.93276 4.87267C9.85694 4.9256 9.78398 4.97854 9.77396 4.98712C9.76252 4.9957 9.77969 5.07868 9.80973 5.17739C9.84263 5.27181 9.86266 5.35908 9.85408 5.3648C9.84549 5.37339 9.76967 5.3319 9.68956 5.27038L9.53934 5.16166L9.37482 5.28183C9.28326 5.3462 9.20458 5.39628 9.20172 5.39341C9.19599 5.38769 9.21888 5.31187 9.24893 5.22317C9.27897 5.13447 9.30472 5.04435 9.30472 5.02432C9.30472 5.00429 9.23462 4.93705 9.14878 4.87553L8.99285 4.76395L9.20028 4.75536L9.40486 4.74678L9.46638 4.56509C9.49928 4.46495 9.53076 4.37768 9.53076 4.3691C9.53362 4.36051 9.56652 4.44492 9.60372 4.55651L9.67382 4.75822L9.87124 4.76681ZM11.9986 4.57081L12.0572 4.74678L12.2647 4.75536L12.4735 4.76395L12.3147 4.87553C12.2275 4.93705 12.1559 5.00429 12.1559 5.02432C12.1559 5.04435 12.1817 5.13304 12.2117 5.22317C12.2418 5.3133 12.2675 5.39055 12.2675 5.39628C12.2675 5.402 12.1888 5.35193 12.0944 5.28469L11.9213 5.15879L11.7711 5.27038C11.6896 5.3319 11.6152 5.37339 11.6066 5.3648C11.598 5.35908 11.618 5.27324 11.6509 5.17739C11.681 5.08011 11.6981 4.9957 11.6867 4.98712C11.6724 4.97854 11.6023 4.9256 11.5308 4.87267L11.3963 4.77539L11.5923 4.76681L11.7911 4.75822L11.8526 4.56509C11.8884 4.45923 11.9227 4.37768 11.9285 4.3834C11.9342 4.39199 11.9642 4.47639 11.9986 4.57081ZM1.26037 5.57081L1.32475 5.76394L1.53362 5.77253L1.74249 5.78111L1.58369 5.88984C1.49642 5.95135 1.42489 6.01287 1.42489 6.03004C1.42489 6.0472 1.45064 6.13876 1.47783 6.23748C1.51073 6.3462 1.51931 6.402 1.50072 6.39055C1.48069 6.37911 1.40629 6.32617 1.33047 6.27324C1.23605 6.206 1.18455 6.18454 1.15737 6.20314C1.13734 6.21745 1.06295 6.27038 0.992847 6.32045C0.922747 6.37052 0.866953 6.40486 0.866953 6.39055C0.866953 6.37911 0.892704 6.29041 0.919886 6.1917L0.975679 6.01573L0.805436 5.88984L0.638054 5.7668H1.05866L1.12017 5.57081C1.15594 5.46208 1.18741 5.37482 1.19027 5.37482C1.19599 5.37625 1.22604 5.46208 1.26037 5.57081ZM6.30901 5.7668H6.52074L6.3505 5.8927L6.18026 6.01573L6.23319 6.1917C6.2618 6.28898 6.28612 6.37911 6.28612 6.39055C6.28612 6.402 6.21602 6.36051 6.13305 6.29899C6.05007 6.23748 5.97425 6.1874 5.9628 6.1874C5.95422 6.1874 5.88698 6.22889 5.81402 6.27896C5.6123 6.42489 5.61516 6.42489 5.67382 6.23748C5.70243 6.14019 5.72675 6.0472 5.72675 6.03004C5.72675 6.01287 5.65665 5.94849 5.57082 5.88984L5.41202 5.78111L5.62089 5.77253L5.82833 5.76394L5.89556 5.56223L5.95994 5.36051L6.02718 5.56223L6.09728 5.7668H6.30901ZM8.41345 5.57081L8.47782 5.76394L8.6867 5.77253L8.89556 5.78111L8.73677 5.88984C8.6495 5.95135 8.57797 6.01287 8.57797 6.03004C8.57797 6.0472 8.60372 6.13876 8.6309 6.23748C8.6638 6.3462 8.67239 6.402 8.65379 6.39055C8.63376 6.37911 8.55937 6.32617 8.48355 6.27324C8.38913 6.206 8.33762 6.18454 8.31044 6.20314C8.29041 6.21745 8.21602 6.27038 8.14592 6.32045C8.07582 6.37052 8.02003 6.40486 8.02003 6.39055C8.02003 6.37911 8.04578 6.29041 8.07296 6.1917L8.12875 6.01573L7.95851 5.88984L7.79113 5.7668H8.21173L8.27325 5.57081C8.30901 5.46208 8.34049 5.37482 8.34335 5.37482C8.34907 5.37625 8.37911 5.46208 8.41345 5.57081ZM13.4621 5.7668H13.6738L13.5036 5.8927L13.3333 6.01573L13.3863 6.1917C13.4149 6.28898 13.4392 6.37911 13.4392 6.39055C13.4392 6.402 13.3691 6.36051 13.2861 6.29899C13.2031 6.23748 13.1273 6.1874 13.1159 6.1874C13.1073 6.1874 13.0401 6.22889 12.9671 6.27896C12.7654 6.42489 12.7682 6.42489 12.8269 6.23748C12.8555 6.14019 12.8798 6.0472 12.8798 6.03004C12.8798 6.01287 12.8097 5.94849 12.7239 5.88984L12.5651 5.78111L12.774 5.77253L12.9814 5.76394L13.0486 5.56223L13.113 5.36051L13.1803 5.56223L13.2504 5.7668H13.4621ZM3.6495 5.57653L3.70529 5.7525L3.91416 5.7668L4.1216 5.78111L3.9814 5.87839C3.90558 5.93132 3.83262 5.98426 3.81974 5.99284C3.79971 6.00715 3.84979 6.22746 3.90701 6.37911C3.91559 6.402 3.84549 6.3648 3.75107 6.29756L3.57797 6.17739L3.40486 6.29756C3.31044 6.3648 3.24034 6.40057 3.24893 6.37911C3.30472 6.22889 3.35479 6.00715 3.33619 5.99284C3.32189 5.98426 3.24893 5.93132 3.17453 5.87839L3.03433 5.78111L3.24177 5.7668L3.45064 5.7525L3.50644 5.57653C3.53648 5.48211 3.57082 5.40343 3.5794 5.40343C3.58798 5.40343 3.61803 5.48211 3.6495 5.57653ZM10.8026 5.57653L10.8584 5.7525L11.0672 5.7668L11.2747 5.78111L11.1345 5.87839C11.0587 5.93132 10.9857 5.98426 10.9728 5.99284C10.9528 6.00715 11.0029 6.22746 11.0601 6.37911C11.0687 6.402 10.9986 6.3648 10.9041 6.29756L10.731 6.17739L10.5579 6.29756C10.4635 6.3648 10.3934 6.40057 10.402 6.37911C10.4578 6.22889 10.5079 6.00715 10.4893 5.99284C10.475 5.98426 10.402 5.93132 10.3276 5.87839L10.1874 5.78111L10.3948 5.7668L10.6037 5.7525L10.6595 5.57653C10.6896 5.48211 10.7239 5.40343 10.7325 5.40343C10.7411 5.40343 10.7711 5.48211 10.8026 5.57653ZM2.45923 6.59084L2.51788 6.76966L2.72961 6.77825L2.94134 6.78683L2.7711 6.907C2.67668 6.97424 2.598 7.0329 2.598 7.03576C2.598 7.04148 2.62375 7.1173 2.65379 7.206C2.68383 7.2947 2.70958 7.3791 2.70958 7.39341C2.70958 7.40772 2.63376 7.36766 2.54506 7.30471L2.38054 7.1874L2.22747 7.30185C2.14592 7.36623 2.06867 7.4163 2.06009 7.4163C2.0515 7.4163 2.07439 7.32903 2.11016 7.22317L2.17453 7.03004L2.00429 6.907L1.83119 6.78683L2.04292 6.77825L2.25465 6.76966L2.29041 6.65521C2.33763 6.49642 2.37196 6.40915 2.38484 6.40915C2.39199 6.40915 2.42489 6.49069 2.45923 6.59084ZM4.84835 6.60228L4.89843 6.76966L5.11016 6.77825L5.32189 6.78683L5.15164 6.90986L4.97854 7.03004L5.04292 7.22317C5.07868 7.32903 5.10443 7.4163 5.09585 7.4163C5.08727 7.4163 5.01431 7.36623 4.93133 7.30471C4.84692 7.2432 4.77539 7.19312 4.76967 7.19312C4.76395 7.19312 4.69385 7.2432 4.61087 7.30471C4.52933 7.36623 4.4578 7.41058 4.44921 7.40485C4.44063 7.39341 4.4907 7.21458 4.54649 7.06437C4.55222 7.04434 4.47926 6.9771 4.38484 6.91129L4.21173 6.78826L4.42346 6.77968L4.63519 6.77109L4.69385 6.59227C4.72675 6.49212 4.76395 6.4163 4.77539 6.42202C4.78684 6.42918 4.81974 6.51072 4.84835 6.60228ZM7.22604 6.58225L7.28183 6.75822L7.4907 6.77252L7.69814 6.78683L7.53934 6.90986C7.44921 6.9771 7.37768 7.04148 7.37768 7.05292C7.37768 7.06437 7.40343 7.14448 7.43348 7.23461C7.46352 7.32474 7.48641 7.40199 7.48069 7.40772C7.47496 7.41344 7.39914 7.36623 7.31044 7.30185L7.15164 7.1874L6.99857 7.30471C6.9113 7.36909 6.83977 7.4163 6.83119 7.41058C6.82546 7.40199 6.84549 7.32331 6.87554 7.23461C6.90558 7.14591 6.93133 7.06151 6.93133 7.05006C6.93133 7.03576 6.85837 6.97138 6.77253 6.907L6.61087 6.78683L6.81831 6.77252L7.02718 6.75822L7.08297 6.58225C7.11302 6.48783 7.14735 6.40915 7.15594 6.40915C7.16452 6.40915 7.19456 6.48783 7.22604 6.58225ZM9.6123 6.59084L9.67096 6.76966L9.88269 6.77825L10.0944 6.78683L9.92418 6.907C9.82976 6.97424 9.75107 7.0329 9.75107 7.03576C9.75107 7.04148 9.77682 7.1173 9.80687 7.206C9.83691 7.2947 9.86266 7.3791 9.86266 7.39341C9.86266 7.40772 9.78684 7.36766 9.69814 7.30471L9.53362 7.1874L9.38054 7.30185C9.299 7.36623 9.22174 7.4163 9.21316 7.4163C9.20458 7.4163 9.22747 7.32903 9.26323 7.22317L9.32761 7.03004L9.15737 6.907L8.98426 6.78683L9.19599 6.77825L9.40772 6.76966L9.44349 6.65521C9.4907 6.49642 9.52503 6.40915 9.53791 6.40915C9.54506 6.40915 9.57797 6.49069 9.6123 6.59084ZM12.0014 6.60228L12.0515 6.76966L12.2632 6.77825L12.475 6.78683L12.3047 6.90986L12.1316 7.03004L12.196 7.22317C12.2318 7.32903 12.2575 7.4163 12.2489 7.4163C12.2403 7.4163 12.1674 7.36623 12.0844 7.30471C12 7.2432 11.9285 7.19312 11.9227 7.19312C11.917 7.19312 11.8469 7.2432 11.7639 7.30471C11.6824 7.36623 11.6109 7.41058 11.6023 7.40485C11.5937 7.39341 11.6438 7.21458 11.6996 7.06437C11.7053 7.04434 11.6323 6.9771 11.5379 6.91129L11.3648 6.78826L11.5765 6.77968L11.7883 6.77109L11.8469 6.59227C11.8798 6.49212 11.917 6.4163 11.9285 6.42202C11.9399 6.42918 11.9728 6.51072 12.0014 6.60228ZM1.27182 7.61945L1.32761 7.79255L1.5236 7.80686L1.7196 7.82116L1.57082 7.92703C1.49213 7.98568 1.42489 8.05006 1.42489 8.07009C1.42489 8.09012 1.45064 8.17595 1.47783 8.26322C1.50787 8.35192 1.52217 8.42202 1.51073 8.42202C1.49928 8.42202 1.42346 8.37195 1.34049 8.31043C1.25322 8.24606 1.17883 8.21029 1.16166 8.22174C1.14449 8.23604 1.07725 8.28611 1.01144 8.33618C0.944206 8.38912 0.885551 8.42345 0.876967 8.41487C0.862661 8.40056 0.90701 8.24176 0.968526 8.07152C0.974249 8.05721 0.90701 7.99284 0.818312 7.93132L0.659514 7.82259L0.86123 7.81401L1.06009 7.80543L1.11874 7.60943C1.15165 7.50071 1.18598 7.41916 1.19742 7.43061C1.20744 7.44062 1.24034 7.52503 1.27182 7.61945ZM3.6495 7.60228L3.70243 7.79255L3.90415 7.80686L4.10587 7.82116L3.95279 7.92989C3.86838 7.99141 3.80257 8.05006 3.80257 8.05864C3.80257 8.07009 3.82833 8.1502 3.85837 8.24033C3.88841 8.33046 3.90844 8.40771 3.89986 8.4163C3.89413 8.42488 3.81831 8.37767 3.73534 8.31615L3.58512 8.20171L3.42632 8.31329C3.33906 8.37767 3.26466 8.42202 3.25608 8.4163C3.25036 8.40771 3.27039 8.32903 3.30043 8.24033C3.33047 8.15163 3.35622 8.06723 3.35622 8.05578C3.35622 8.04434 3.28326 7.98282 3.19742 7.92131L3.03863 7.80972L3.24607 7.80113L3.4535 7.79255L3.5093 7.60228C3.53791 7.49928 3.57082 7.41487 3.58226 7.41487C3.58512 7.41487 3.61803 7.49928 3.6495 7.60228ZM6.03576 7.61086L6.09442 7.804L6.29328 7.81258L6.49499 7.82116L6.33619 7.92989C6.2475 7.99141 6.18026 8.05578 6.18598 8.07009C6.24177 8.22603 6.29185 8.39913 6.28326 8.41058C6.27468 8.4163 6.19885 8.37195 6.11588 8.31043L5.9628 8.20171L5.81259 8.31043C5.73104 8.37195 5.65665 8.42202 5.64521 8.42202C5.63376 8.42202 5.64807 8.35192 5.67811 8.26322C5.70672 8.17595 5.73104 8.09012 5.73104 8.06723C5.73104 8.0472 5.66381 7.98282 5.58512 7.92417L5.43634 7.82116L5.63233 7.80686L5.82833 7.79255L5.87554 7.65235C5.90129 7.57367 5.92847 7.49069 5.93419 7.46208C5.95422 7.38197 5.97425 7.40915 6.03576 7.61086ZM8.42489 7.61945L8.48069 7.79255L8.67668 7.80686L8.87267 7.82116L8.72389 7.92703C8.64521 7.98568 8.57797 8.05006 8.57797 8.07009C8.57797 8.09012 8.60372 8.17595 8.6309 8.26322C8.66094 8.35192 8.67525 8.42202 8.6638 8.42202C8.65236 8.42202 8.57654 8.37195 8.49356 8.31043C8.40629 8.24606 8.3319 8.21029 8.31473 8.22174C8.29757 8.23604 8.23033 8.28611 8.16452 8.33618C8.09728 8.38912 8.03863 8.42345 8.03004 8.41487C8.01574 8.40056 8.06009 8.24176 8.1216 8.07152C8.12732 8.05721 8.06009 7.99284 7.97139 7.93132L7.81259 7.82259L8.01431 7.81401L8.21316 7.80543L8.27182 7.60943C8.30472 7.50071 8.33906 7.41916 8.3505 7.43061C8.36051 7.44062 8.39342 7.52503 8.42489 7.61945ZM10.8026 7.60228L10.8555 7.79255L11.0572 7.80686L11.2589 7.82116L11.1059 7.92989C11.0215 7.99141 10.9556 8.05006 10.9556 8.05864C10.9556 8.07009 10.9814 8.1502 11.0114 8.24033C11.0415 8.33046 11.0615 8.40771 11.0529 8.4163C11.0472 8.42488 10.9714 8.37767 10.8884 8.31615L10.7382 8.20171L10.5794 8.31329C10.4921 8.37767 10.4177 8.42202 10.4092 8.4163C10.4034 8.40771 10.4235 8.32903 10.4535 8.24033C10.4835 8.15163 10.5093 8.06723 10.5093 8.05578C10.5093 8.04434 10.4363 7.98282 10.3505 7.92131L10.1917 7.80972L10.3991 7.80113L10.6066 7.79255L10.6624 7.60228C10.691 7.49928 10.7239 7.41487 10.7353 7.41487C10.7382 7.41487 10.7711 7.49928 10.8026 7.60228ZM13.1888 7.61086L13.2475 7.804L13.4464 7.81258L13.6481 7.82116L13.4893 7.92989C13.4006 7.99141 13.3333 8.05578 13.3391 8.07009C13.3948 8.22603 13.4449 8.39913 13.4363 8.41058C13.4278 8.4163 13.3519 8.37195 13.269 8.31043L13.1159 8.20171L12.9657 8.31043C12.8841 8.37195 12.8097 8.42202 12.7983 8.42202C12.7868 8.42202 12.8011 8.35192 12.8312 8.26322C12.8598 8.17595 12.8841 8.09012 12.8841 8.06723C12.8841 8.0472 12.8169 7.98282 12.7382 7.92417L12.5894 7.82116L12.7854 7.80686L12.9814 7.79255L13.0286 7.65235C13.0544 7.57367 13.0815 7.49069 13.0873 7.46208C13.1073 7.38197 13.1273 7.40915 13.1888 7.61086ZM2.72961 8.81258H2.94134L2.77682 8.92989C2.68813 8.99427 2.60944 9.0472 2.60372 9.05006C2.60086 9.05292 2.62375 9.12874 2.65379 9.21744C2.7382 9.45778 2.72675 9.46923 2.56223 9.34333C2.47783 9.28182 2.40343 9.23175 2.38913 9.23175C2.37768 9.23175 2.31044 9.27323 2.23891 9.32331C2.03147 9.47209 2.0372 9.47209 2.08584 9.32331C2.17024 9.05006 2.1731 9.06007 1.99714 8.92989L1.83548 8.81258H2.25465L2.32189 8.608L2.38627 8.40628L2.4535 8.608L2.5236 8.81258H2.72961ZM4.83691 8.61658L4.90129 8.81258H5.32046L5.1588 8.92989C4.98283 9.0615 4.98569 9.05006 5.0701 9.32044C5.09299 9.39627 5.10873 9.45492 5.103 9.45492C5.10014 9.45492 5.02718 9.40485 4.94707 9.34333C4.86695 9.28182 4.78541 9.23175 4.7711 9.23175C4.75393 9.23175 4.67668 9.28182 4.59227 9.34333C4.42775 9.46923 4.41631 9.45778 4.50071 9.21744C4.53076 9.12874 4.55365 9.05292 4.55079 9.05006C4.54506 9.0472 4.4721 8.99713 4.38913 8.93561L4.23605 8.82688L4.43777 8.8183L4.63948 8.80972L4.70386 8.61658C4.73677 8.50786 4.76824 8.42059 4.7711 8.42059C4.77253 8.42059 4.80257 8.50786 4.83691 8.61658ZM9.88269 8.81258H10.0944L9.9299 8.92989C9.83977 8.99427 9.76252 9.0472 9.75679 9.05006C9.75393 9.05292 9.77682 9.12874 9.80687 9.21744C9.89127 9.45778 9.87983 9.46923 9.71531 9.34333C9.6309 9.28182 9.55651 9.23175 9.5422 9.23175C9.53076 9.23175 9.46352 9.27323 9.39199 9.32331C9.18455 9.47209 9.19027 9.47209 9.23891 9.32331C9.32332 9.05006 9.32618 9.06007 9.15021 8.92989L8.98855 8.81258H9.40772L9.47496 8.608L9.53934 8.40628L9.60658 8.608L9.67668 8.81258H9.88269ZM11.99 8.61658L12.0544 8.81258H12.4735L12.3119 8.92989C12.1359 9.0615 12.1388 9.05006 12.2232 9.32044C12.2461 9.39627 12.2618 9.45492 12.2561 9.45492C12.2532 9.45492 12.1803 9.40485 12.1001 9.34333C12.02 9.28182 11.9385 9.23175 11.9242 9.23175C11.907 9.23175 11.8298 9.28182 11.7453 9.34333C11.5808 9.46923 11.5694 9.45778 11.6538 9.21744C11.6838 9.12874 11.7067 9.05292 11.7039 9.05006C11.6981 9.0472 11.6252 8.99713 11.5422 8.93561L11.3891 8.82688L11.5908 8.8183L11.7926 8.80972L11.8569 8.61658C11.8898 8.50786 11.9213 8.42059 11.9242 8.42059C11.9256 8.42059 11.9556 8.50786 11.99 8.61658ZM7.22604 8.62231L7.28183 8.79827L7.48641 8.81258L7.69099 8.82688L7.55651 8.92416C7.48355 8.9771 7.41059 9.03003 7.39771 9.03861C7.3834 9.0472 7.40057 9.13876 7.43061 9.24605C7.46352 9.34906 7.48641 9.43919 7.48069 9.44491C7.47783 9.45063 7.40772 9.40342 7.33047 9.3419C7.24893 9.28325 7.17453 9.23318 7.16023 9.23318C7.14592 9.23318 7.06581 9.28325 6.97854 9.34763C6.88984 9.40914 6.81974 9.44777 6.81974 9.43489C6.81974 9.42202 6.84549 9.33761 6.87554 9.24748C6.90558 9.15735 6.93133 9.07724 6.93133 9.0658C6.93133 9.05435 6.85837 8.99856 6.77253 8.93704L6.61373 8.82831L6.82117 8.81401L7.02861 8.7997L7.08441 8.62374C7.11445 8.52932 7.14878 8.45063 7.15737 8.45063C7.16595 8.45063 7.19456 8.52789 7.22604 8.62231ZM1.26037 9.6223L1.32475 9.81544L1.53362 9.82402L1.74535 9.8326L1.58655 9.94419C1.49785 10.0057 1.42489 10.0758 1.42489 10.1001C1.42489 10.1244 1.45064 10.2146 1.47783 10.3018C1.50787 10.3905 1.5279 10.4606 1.51931 10.4606C1.51073 10.4606 1.43777 10.4077 1.35193 10.3462L1.20172 10.2289L1.03433 10.3462C0.942775 10.4106 0.866953 10.4521 0.866953 10.4378C0.866953 10.4234 0.892704 10.3405 0.922747 10.2503C0.95279 10.1616 0.978541 10.0858 0.978541 10.0801C0.978541 10.0772 0.899857 10.0157 0.805436 9.94562L0.632332 9.81687H1.05866L1.12017 9.62087C1.15737 9.51358 1.18741 9.42774 1.19027 9.42774C1.19599 9.42774 1.22604 9.51358 1.26037 9.6223ZM6.30615 9.82402L6.51788 9.8326L6.35908 9.94133C6.27182 9.99999 6.19456 10.0586 6.18884 10.0701C6.18026 10.0815 6.20029 10.1645 6.23033 10.2518C6.26037 10.3405 6.28612 10.4249 6.28612 10.4392C6.28612 10.4535 6.21316 10.4106 6.1216 10.3476L5.95708 10.2332L5.80401 10.3476C5.71674 10.4091 5.64235 10.4621 5.63376 10.4621C5.62518 10.4621 5.64521 10.392 5.67525 10.3033C5.70386 10.216 5.72818 10.1273 5.72818 10.1016C5.72818 10.0758 5.65522 10.0071 5.57225 9.94562L5.41631 9.83403L5.62375 9.82545L5.83119 9.81687L5.89843 9.61515L5.9628 9.41343L6.03004 9.61515L6.09728 9.81687L6.30615 9.82402ZM8.41345 9.6223L8.47782 9.81544L8.6867 9.82402L8.89843 9.8326L8.73963 9.94419C8.6495 10.0057 8.57797 10.0758 8.57797 10.1001C8.57797 10.1244 8.60372 10.2146 8.6309 10.3018C8.66094 10.3905 8.68097 10.4606 8.67239 10.4606C8.66381 10.4606 8.59084 10.4077 8.50501 10.3462L8.35479 10.2289L8.18741 10.3462C8.09585 10.4106 8.02003 10.4521 8.02003 10.4378C8.02003 10.4234 8.04578 10.3405 8.07582 10.2503C8.10586 10.1602 8.13162 10.0858 8.13162 10.0801C8.13162 10.0772 8.05293 10.0157 7.95851 9.94562L7.78541 9.81687H8.21173L8.27325 9.62087C8.30901 9.51215 8.34049 9.42488 8.34335 9.42488C8.34907 9.42774 8.37911 9.51358 8.41345 9.6223ZM13.4592 9.82402L13.671 9.8326L13.5122 9.94133C13.4249 9.99999 13.3476 10.0586 13.3419 10.0701C13.3333 10.0815 13.3534 10.1645 13.3834 10.2518C13.4134 10.3405 13.4392 10.4249 13.4392 10.4392C13.4392 10.4535 13.3662 10.4106 13.2747 10.3476L13.1102 10.2332L12.9571 10.3476C12.8698 10.4091 12.7954 10.4621 12.7868 10.4621C12.7783 10.4621 12.7983 10.392 12.8283 10.3033C12.8569 10.216 12.8813 10.1273 12.8813 10.1016C12.8813 10.0758 12.8083 10.0071 12.7253 9.94562L12.5694 9.83403L12.7768 9.82545L12.9843 9.81687L13.0515 9.61515L13.1159 9.41343L13.1831 9.61515L13.2504 9.81687L13.4592 9.82402ZM3.6495 9.62803L3.70529 9.80399L3.91273 9.8183L4.12017 9.8326L3.96137 9.95278C3.87411 10.0172 3.80257 10.0815 3.80257 10.0958C3.80257 10.1073 3.82833 10.1903 3.85837 10.2804C3.88841 10.3705 3.9113 10.4478 3.90558 10.4535C3.89986 10.4564 3.8269 10.412 3.74678 10.3505C3.66237 10.289 3.59084 10.2389 3.58226 10.2389C3.57368 10.2389 3.49499 10.289 3.41488 10.3505C3.33047 10.412 3.25894 10.4564 3.25322 10.4506C3.2475 10.4478 3.27039 10.3691 3.30043 10.2804C3.33047 10.1917 3.35622 10.1073 3.35622 10.0958C3.35622 10.0815 3.28326 10.0172 3.19742 9.95278L3.03863 9.8326L3.24607 9.8183L3.4535 9.80399L3.5093 9.62803C3.53934 9.53361 3.57368 9.45492 3.58226 9.45492C3.59084 9.45492 3.61803 9.53361 3.6495 9.62803ZM10.8026 9.62803L10.8584 9.80399L11.0658 9.8183L11.2732 9.8326L11.1144 9.95278C11.0272 10.0172 10.9556 10.0815 10.9556 10.0958C10.9556 10.1073 10.9814 10.1903 11.0114 10.2804C11.0415 10.3705 11.0644 10.4478 11.0587 10.4535C11.0529 10.4564 10.98 10.412 10.8999 10.3505C10.8154 10.289 10.7439 10.2389 10.7353 10.2389C10.7268 10.2389 10.6481 10.289 10.568 10.3505C10.4835 10.412 10.412 10.4564 10.4063 10.4506C10.4006 10.4478 10.4235 10.3691 10.4535 10.2804C10.4835 10.1917 10.5093 10.1073 10.5093 10.0958C10.5093 10.0815 10.4363 10.0172 10.3505 9.95278L10.1917 9.8326L10.3991 9.8183L10.6066 9.80399L10.6624 9.62803C10.6924 9.53361 10.7268 9.45492 10.7353 9.45492C10.7439 9.45492 10.7711 9.53361 10.8026 9.62803Z" fill="white"/>
</svg>
