<svg width="24" height="24" viewBox="0 0 24 24" fill="none" xmlns="http://www.w3.org/2000/svg">
<path d="M12.0995 1.39288L12.0049 1.09663C11.9839 1.06091 11.9461 1.0399 11.9062 1.0399L10.9565 1.0378C10.9145 1.0378 10.8745 1.06091 10.8556 1.09873L10.7506 1.4454L10.7527 1.46431C11.1624 1.41599 11.5763 1.38867 11.9986 1.38867C12.0322 1.38867 12.0658 1.39077 12.0995 1.39288Z" fill="url(#paint0_linear_8446_11501)"/>
<path d="M2.1957 7.20226C2.15578 7.20646 2.12006 7.22957 2.10115 7.26529L1.68305 8.11832C1.66414 8.15613 1.66834 8.20236 1.69355 8.23597L1.95828 8.4818L1.97929 8.4881C2.12847 8.06159 2.30495 7.64558 2.50665 7.24428L2.1957 7.20226Z" fill="url(#paint1_linear_8446_11501)"/>
<path d="M3.38687 18.6929C3.37216 18.7307 3.37847 18.7727 3.40368 18.8063L3.98777 19.5564C4.01298 19.59 4.055 19.6068 4.09912 19.5984L4.43529 19.4681L4.4479 19.4555C4.13274 19.1362 3.83649 18.7958 3.56336 18.4365L3.38687 18.6929Z" fill="url(#paint2_linear_8446_11501)"/>
<path d="M14.2395 22.6596C14.2668 22.689 14.3088 22.7016 14.3467 22.6953L15.2753 22.4999C15.3173 22.4915 15.3488 22.46 15.3615 22.4201L15.3909 22.0587L15.3888 22.0524C14.9665 22.1953 14.5336 22.3129 14.0882 22.4033L14.2395 22.6596Z" fill="url(#paint3_linear_8446_11501)"/>
<path d="M22.5649 14.6483C22.6048 14.6357 22.6342 14.6063 22.6426 14.5664L22.8737 13.644C22.8842 13.6041 22.8716 13.56 22.8401 13.5306L22.5292 13.3457H22.525C22.4682 13.7953 22.3863 14.2365 22.2749 14.6673L22.5649 14.6483Z" fill="url(#paint4_linear_8446_11501)"/>
<path d="M19.0103 3.6557C19.0166 3.61578 19.0019 3.57586 18.9704 3.54855L18.2434 2.93714C18.2119 2.90983 18.1657 2.90353 18.1258 2.91823L17.8232 3.11573L17.8169 3.12624C18.193 3.37416 18.5523 3.64519 18.8947 3.93724L19.0103 3.6557Z" fill="url(#paint5_linear_8446_11501)"/>
<path d="M7.56791 2.03159C7.53429 2.00848 7.49227 2.00428 7.45445 2.02109L6.58672 2.40558C6.5489 2.42239 6.52159 2.4602 6.51949 2.50222L6.56571 2.8615L6.57622 2.88041C6.96071 2.6514 7.36201 2.4455 7.77591 2.26481L7.56791 2.03159Z" fill="url(#paint6_linear_8446_11501)"/>
<path d="M6.8559 21.6112C6.858 21.6511 6.88111 21.6889 6.91683 21.7078L7.75515 22.1554C7.79296 22.1743 7.83709 22.1722 7.8728 22.1491L8.12703 21.8927L8.13123 21.8801C7.71102 21.7162 7.30132 21.5272 6.90843 21.3107L6.8559 21.6112Z" fill="url(#paint7_linear_8446_11501)"/>
<path d="M18.3844 20.8233C18.4223 20.8401 18.4643 20.8338 18.4979 20.8107L19.2669 20.2539C19.3005 20.2287 19.3194 20.1867 19.3131 20.1447L19.1934 19.8043L19.1892 19.8001C18.8593 20.1047 18.5084 20.3863 18.1428 20.6468L18.3844 20.8233Z" fill="url(#paint8_linear_8446_11501)"/>
<path d="M22.7309 10.1185C22.7624 10.0912 22.7771 10.0513 22.7687 10.0113L22.6048 9.07638C22.5985 9.03436 22.567 9.00075 22.5271 8.98604L22.1678 8.94402L22.1636 8.94612C22.2917 9.37263 22.3926 9.80965 22.4661 10.2572L22.7309 10.1185Z" fill="url(#paint9_linear_8446_11501)"/>
<path d="M15.0105 1.52314C15 1.48322 14.9706 1.45381 14.9306 1.4412L14.0188 1.17857C13.9789 1.16597 13.9347 1.17857 13.9053 1.21009L13.7099 1.51474L13.7078 1.52945C14.1553 1.60088 14.5945 1.70383 15.021 1.82989L15.0105 1.52314Z" fill="url(#paint10_linear_8446_11501)"/>
<path d="M3.89541 4.69151C3.85549 4.6831 3.81347 4.69781 3.78826 4.72723L3.15164 5.43318C3.12433 5.46469 3.11382 5.50881 3.12853 5.54873L3.31552 5.85759L3.33653 5.87229C3.59706 5.50461 3.8807 5.15374 4.18325 4.82177L3.89541 4.69151Z" fill="url(#paint11_linear_8446_11501)"/>
<path d="M1.87421 16.0644C1.849 16.096 1.8448 16.1401 1.85951 16.1779L2.21458 17.0603C2.22929 17.1003 2.26711 17.1276 2.30913 17.1318L2.66841 17.0982L2.68311 17.0898C2.46881 16.6969 2.27971 16.2872 2.11373 15.8669L1.87421 16.0644Z" fill="url(#paint12_linear_8446_11501)"/>
<path d="M11.1394 22.5714L11.2129 22.8676C11.2318 22.9033 11.2675 22.9285 11.3074 22.9306L12.255 22.9979C12.297 23 12.337 22.9811 12.3601 22.9433L12.4882 22.605V22.5945C12.3265 22.6029 12.1626 22.6071 11.9987 22.6071C11.7087 22.6092 11.423 22.5945 11.1394 22.5714Z" fill="url(#paint13_linear_8446_11501)"/>
<path d="M21.4237 17.4595C21.4636 17.4595 21.5014 17.4364 21.5225 17.4028L21.9994 16.5813C22.0204 16.5456 22.0204 16.4994 21.9973 16.4636L21.7494 16.201H21.7473C21.5687 16.6149 21.3628 17.0162 21.1359 17.4007L21.4237 17.4595Z" fill="url(#paint14_linear_8446_11501)"/>
<path d="M21.0367 5.91432C21.0535 5.8765 21.0514 5.83448 21.0283 5.80086L20.4988 5.01297C20.4757 4.97725 20.4337 4.95834 20.3917 4.96255L20.0471 5.0697L20.0387 5.076C20.3307 5.41637 20.6039 5.77355 20.8518 6.14963L21.0367 5.91432Z" fill="url(#paint15_linear_8446_11501)"/>
<path d="M10.4874 1.19958C10.4621 1.16807 10.4222 1.15126 10.3823 1.15756L9.44104 1.28783C9.39902 1.29413 9.3633 1.32144 9.34859 1.36136L9.29397 1.71854L9.29817 1.73535C9.72888 1.62189 10.1722 1.53785 10.6239 1.47902L10.4874 1.19958Z" fill="url(#paint16_linear_8446_11501)"/>
<path d="M1.62408 8.61205C1.58416 8.62046 1.55265 8.64987 1.54004 8.68769L1.2459 9.59114C1.23329 9.63106 1.2438 9.67518 1.27321 9.7067L1.56946 9.9126L1.59047 9.9168C1.67871 9.47138 1.79847 9.03646 1.93924 8.61205H1.62408Z" fill="url(#paint17_linear_8446_11501)"/>
<path d="M4.40305 19.8253C4.39464 19.8652 4.40515 19.9072 4.43456 19.9346L5.1174 20.5964C5.14682 20.6258 5.19094 20.6363 5.23296 20.6237L5.54811 20.4472L5.55862 20.4346C5.20144 20.1615 4.86107 19.8652 4.53961 19.5501L4.40305 19.8253Z" fill="url(#paint18_linear_8446_11501)"/>
<path d="M15.7025 22.2436C15.734 22.2688 15.776 22.2772 15.8139 22.2625L16.7068 21.939C16.7467 21.9242 16.774 21.8885 16.7803 21.8465L16.7593 21.4851L16.7572 21.4809C16.358 21.6826 15.9441 21.8591 15.5176 22.0083L15.7025 22.2436Z" fill="url(#paint19_linear_8446_11501)"/>
<path d="M22.9495 12.0073L22.6154 11.8687H22.6091C22.6091 11.9128 22.6133 11.9569 22.6133 12.001C22.6133 12.4107 22.5881 12.8162 22.5419 13.2133L22.8318 13.1524C22.8696 13.1356 22.8948 13.0999 22.899 13.06L22.9999 12.1145C23.0041 12.0725 22.9852 12.0304 22.9495 12.0073Z" fill="url(#paint20_linear_8446_11501)"/>
<path d="M17.7808 2.76066C17.7808 2.72074 17.7619 2.68292 17.7261 2.65981L16.9214 2.15556C16.8857 2.13245 16.8395 2.13245 16.8038 2.15346L16.5328 2.39298L16.5286 2.40348C16.9362 2.59678 17.3291 2.81528 17.7072 3.0569L17.7808 2.76066Z" fill="url(#paint21_linear_8446_11501)"/>
<path d="M6.22492 2.74385C6.1892 2.72494 6.14508 2.72704 6.11147 2.74805L5.30467 3.2502C5.26895 3.27331 5.24794 3.31323 5.25004 3.35525L5.34459 3.70402L5.35929 3.72293C5.71017 3.44139 6.07785 3.18086 6.46234 2.94555L6.22492 2.74385Z" fill="url(#paint22_linear_8446_11501)"/>
<path d="M1.14306 13.1188C1.10945 13.144 1.09264 13.1818 1.09684 13.2217L1.19559 14.1672C1.19979 14.2092 1.22711 14.2449 1.26703 14.2618L1.6221 14.329L1.64311 14.3248C1.54646 13.8899 1.47503 13.4445 1.43301 12.9906L1.14306 13.1188Z" fill="url(#paint23_linear_8446_11501)"/>
<path d="M8.24513 22.2331C8.25353 22.273 8.28085 22.3066 8.31866 22.3192L9.21161 22.6449C9.25153 22.6596 9.29565 22.6512 9.32716 22.6218L9.54357 22.3318L9.54567 22.3192C9.10445 22.2142 8.67374 22.0839 8.25563 21.9263L8.24513 22.2331Z" fill="url(#paint24_linear_8446_11501)"/>
<path d="M19.2882 19.7077L19.5508 19.8484C19.5907 19.8589 19.6328 19.8484 19.6601 19.8211L20.345 19.1614C20.3744 19.132 20.387 19.0878 20.3765 19.0479L20.2106 18.7265L20.2085 18.7244C19.9248 19.071 19.616 19.3988 19.2882 19.7077Z" fill="url(#paint25_linear_8446_11501)"/>
<path d="M22.3651 8.64357C22.3924 8.61206 22.4008 8.57004 22.3882 8.53222L22.0961 7.62877C22.0835 7.58885 22.0499 7.55943 22.0079 7.55103L21.6465 7.55943L21.6423 7.56154C21.8293 7.96704 21.9932 8.38514 22.1297 8.81586L22.3651 8.64357Z" fill="url(#paint26_linear_8446_11501)"/>
<path d="M13.5224 1.20378C13.5056 1.16596 13.472 1.14075 13.432 1.13445L12.4908 0.999982C12.4488 0.993679 12.4067 1.01259 12.3815 1.04621L12.2303 1.37397V1.39288C12.6862 1.40338 13.1337 1.4391 13.5728 1.50423L13.5224 1.20378Z" fill="url(#paint27_linear_8446_11501)"/>
<path d="M2.95824 5.887C2.91832 5.8849 2.8784 5.90381 2.85529 5.93743L2.32372 6.72532C2.30061 6.76103 2.29851 6.80516 2.31742 6.84297L2.54644 7.12241L2.56745 7.13292C2.77545 6.73162 3.00656 6.34503 3.26289 5.97524L2.95824 5.887Z" fill="url(#paint28_linear_8446_11501)"/>
<path d="M2.53807 17.4322C2.51916 17.4679 2.51916 17.51 2.53807 17.5457L3.0108 18.3693C3.03181 18.405 3.07173 18.4281 3.11375 18.426L3.46673 18.342L3.48144 18.3315C3.2125 17.9722 2.96878 17.5919 2.74817 17.199L2.53807 17.4322Z" fill="url(#paint29_linear_8446_11501)"/>
<path d="M12.7348 22.8697C12.7579 22.9033 12.7978 22.9222 12.8377 22.9201L13.7853 22.855C13.8273 22.8529 13.8651 22.8256 13.8819 22.7878L13.9618 22.4348L13.9597 22.4264C13.5227 22.5083 13.0772 22.5651 12.6213 22.5903L12.7348 22.8697Z" fill="url(#paint30_linear_8446_11501)"/>
<path d="M22.092 16.0939C22.1319 16.0876 22.1655 16.0603 22.1802 16.0245L22.5374 15.1442C22.5542 15.1043 22.5458 15.0602 22.5185 15.0265L22.237 14.7996H22.2348C22.1151 15.2366 21.9701 15.6611 21.7999 16.0729L22.092 16.0939Z" fill="url(#paint31_linear_8446_11501)"/>
<path d="M19.9521 4.97515L20.1034 4.71462C20.116 4.6747 20.1055 4.63268 20.0803 4.60327L19.4457 3.89522C19.4184 3.8637 19.3743 3.8511 19.3323 3.8595L19.0045 4.01498L18.9961 4.02338C19.3344 4.32173 19.6537 4.63899 19.9521 4.97515Z" fill="url(#paint32_linear_8446_11501)"/>
<path d="M8.99939 1.51474C8.96998 1.48743 8.92796 1.47692 8.88804 1.48743L7.97409 1.74796C7.93417 1.76056 7.90265 1.79208 7.89425 1.8341L7.89005 2.19548L7.89635 2.21229C8.30815 2.04 8.73466 1.89293 9.17168 1.77317L8.99939 1.51474Z" fill="url(#paint33_linear_8446_11501)"/>
<path d="M1.25429 10.087C1.21647 10.1017 1.18916 10.1353 1.18075 10.1752L1.01477 11.1102C1.00636 11.1522 1.02317 11.1942 1.05679 11.2216L1.38035 11.3833L1.40346 11.3854C1.42867 10.9295 1.4854 10.4841 1.56734 10.045L1.25429 10.087Z" fill="url(#paint34_linear_8446_11501)"/>
<path d="M1.39933 11.5136L1.09468 11.5997C1.05896 11.6186 1.03585 11.6565 1.03585 11.6964L1.00013 12.6461C0.998031 12.6881 1.02114 12.728 1.05686 12.749L1.39933 12.8646L1.42454 12.8625C1.40143 12.5767 1.38672 12.291 1.38672 11.9989C1.38672 11.8372 1.39093 11.6754 1.39933 11.5136Z" fill="url(#paint35_linear_8446_11501)"/>
<path d="M5.56749 20.8044C5.56329 20.8443 5.5822 20.8842 5.61372 20.9074L6.3806 21.4662C6.41421 21.4914 6.46044 21.4956 6.49825 21.4767L6.7861 21.2582L6.7924 21.2456C6.39951 21.025 6.02132 20.7792 5.66204 20.5124L5.56749 20.8044Z" fill="url(#paint36_linear_8446_11501)"/>
<path d="M17.0939 21.628C17.1296 21.649 17.1717 21.6511 17.2074 21.6322L18.0478 21.1868C18.0856 21.1679 18.1087 21.128 18.1087 21.0859L18.0373 20.7309L18.0352 20.7267C17.6675 20.9809 17.2809 21.2141 16.8817 21.42L17.0939 21.628Z" fill="url(#paint37_linear_8446_11501)"/>
<path d="M22.8864 11.6312C22.92 11.6081 22.941 11.5703 22.9389 11.5304L22.9074 10.5807C22.9053 10.5387 22.8822 10.5009 22.8423 10.482L22.4935 10.3895H22.4914C22.5586 10.8286 22.5944 11.2762 22.607 11.7321L22.8864 11.6312Z" fill="url(#paint38_linear_8446_11501)"/>
<path d="M16.4377 2.0442C16.4335 2.00428 16.4083 1.96856 16.3705 1.95175L15.5028 1.56306C15.465 1.54625 15.4187 1.55045 15.3851 1.57777L15.1498 1.8509L15.1477 1.86141C15.5805 1.99587 15.9986 2.15975 16.4062 2.34465L16.4377 2.0442Z" fill="url(#paint39_linear_8446_11501)"/>
<path d="M5.25801 3.80277L4.99328 3.63679C4.95546 3.62419 4.91134 3.63049 4.88193 3.6578L4.15286 4.265C4.12135 4.29232 4.10664 4.33434 4.11505 4.37636L4.25792 4.70832L4.27683 4.72513C4.58358 4.39947 4.91134 4.08851 5.25801 3.80277Z" fill="url(#paint40_linear_8446_11501)"/>
<path d="M1.40561 14.6168C1.37619 14.6462 1.36569 14.6862 1.37409 14.7261L1.60311 15.6484C1.61361 15.6884 1.64513 15.722 1.68715 15.7325L2.04853 15.7493L2.06744 15.743C1.90986 15.3249 1.77959 14.8942 1.67454 14.4509L1.40561 14.6168Z" fill="url(#paint41_linear_8446_11501)"/>
<path d="M9.70588 22.6533C9.71848 22.6911 9.7521 22.7205 9.78992 22.7289L10.7186 22.9285C10.7606 22.937 10.8026 22.9222 10.8299 22.8907L11.0043 22.5735V22.563C10.5526 22.5209 10.1072 22.4495 9.67226 22.3529L9.70588 22.6533Z" fill="url(#paint42_linear_8446_11501)"/>
<path d="M20.5725 18.7181C20.6124 18.7223 20.6523 18.7076 20.6775 18.676L21.2637 17.9281C21.2889 17.8945 21.2952 17.8503 21.2784 17.8104L21.0704 17.5142H21.0683C20.833 17.8987 20.5746 18.2663 20.293 18.6151L20.5725 18.7181Z" fill="url(#paint43_linear_8446_11501)"/>
<path d="M21.7955 7.23167C21.8186 7.19805 21.8207 7.15393 21.8039 7.11821L21.3879 6.26519C21.369 6.22737 21.3312 6.20216 21.2892 6.20006L20.932 6.25889L20.9257 6.26309C21.1673 6.63917 21.39 7.02997 21.5833 7.43757L21.7955 7.23167Z" fill="url(#paint44_linear_8446_11501)"/>
<path d="M11.9991 1.38867C6.13703 1.38867 1.38477 6.13913 1.38477 11.9989C1.38477 17.8587 6.13703 22.6092 11.9991 22.6092C17.8611 22.6092 22.6134 17.8587 22.6134 11.9989C22.6134 6.13913 17.8611 1.38867 11.9991 1.38867Z" fill="url(#paint45_radial_8446_11501)"/>
<path fill-rule="evenodd" clip-rule="evenodd" d="M21.4273 7.79942C20.4358 5.85523 19.0714 3.95678 16.9507 3.0165L17.0488 2.83337C19.198 3.7863 20.5966 5.70902 21.6099 7.6959C22.6237 9.68401 22.8871 12.1875 22.0587 15.2084L21.8639 15.1753C22.6807 12.1965 22.4182 9.74239 21.4273 7.79942Z" fill="url(#paint46_linear_8446_11501)"/>
<path d="M12.8626 10.9683H13.8067L12 6L10.1934 10.9683H11.2416C11.3674 10.9683 11.4805 10.884 11.5273 10.7555L12 9.45547L12.4341 10.6492C12.5042 10.8419 12.6739 10.9683 12.8626 10.9683Z" fill="white"/>
<path d="M13.6459 13.9815L12 12.9131L10.3542 13.9815L10.897 12.4888C10.9529 12.3351 10.8995 12.1595 10.7708 12.0736L9.98255 11.548L8 17L12 14.4032L16 17L14.0175 11.548L13.2292 12.0736C13.1005 12.1595 13.0471 12.3351 13.103 12.4888L13.6459 13.9815Z" fill="white"/>
<defs>
<linearGradient id="paint0_linear_8446_11501" x1="5" y1="20.5" x2="21.5" y2="7.5" gradientUnits="userSpaceOnUse">
<stop stop-color="#7869FE"/>
<stop offset="1" stop-color="#8F83FA"/>
</linearGradient>
<linearGradient id="paint1_linear_8446_11501" x1="5" y1="20.5" x2="21.5" y2="7.5" gradientUnits="userSpaceOnUse">
<stop stop-color="#7869FE"/>
<stop offset="1" stop-color="#8F83FA"/>
</linearGradient>
<linearGradient id="paint2_linear_8446_11501" x1="5" y1="20.5" x2="21.5" y2="7.5" gradientUnits="userSpaceOnUse">
<stop stop-color="#7869FE"/>
<stop offset="1" stop-color="#8F83FA"/>
</linearGradient>
<linearGradient id="paint3_linear_8446_11501" x1="5" y1="20.5" x2="21.5" y2="7.5" gradientUnits="userSpaceOnUse">
<stop stop-color="#7869FE"/>
<stop offset="1" stop-color="#8F83FA"/>
</linearGradient>
<linearGradient id="paint4_linear_8446_11501" x1="5" y1="20.5" x2="21.5" y2="7.5" gradientUnits="userSpaceOnUse">
<stop stop-color="#7869FE"/>
<stop offset="1" stop-color="#8F83FA"/>
</linearGradient>
<linearGradient id="paint5_linear_8446_11501" x1="5" y1="20.5" x2="21.5" y2="7.5" gradientUnits="userSpaceOnUse">
<stop stop-color="#7869FE"/>
<stop offset="1" stop-color="#8F83FA"/>
</linearGradient>
<linearGradient id="paint6_linear_8446_11501" x1="5" y1="20.5" x2="21.5" y2="7.5" gradientUnits="userSpaceOnUse">
<stop stop-color="#7869FE"/>
<stop offset="1" stop-color="#8F83FA"/>
</linearGradient>
<linearGradient id="paint7_linear_8446_11501" x1="5" y1="20.5" x2="21.5" y2="7.5" gradientUnits="userSpaceOnUse">
<stop stop-color="#7869FE"/>
<stop offset="1" stop-color="#8F83FA"/>
</linearGradient>
<linearGradient id="paint8_linear_8446_11501" x1="5" y1="20.5" x2="21.5" y2="7.5" gradientUnits="userSpaceOnUse">
<stop stop-color="#7869FE"/>
<stop offset="1" stop-color="#8F83FA"/>
</linearGradient>
<linearGradient id="paint9_linear_8446_11501" x1="5" y1="20.5" x2="21.5" y2="7.5" gradientUnits="userSpaceOnUse">
<stop stop-color="#7869FE"/>
<stop offset="1" stop-color="#8F83FA"/>
</linearGradient>
<linearGradient id="paint10_linear_8446_11501" x1="5" y1="20.5" x2="21.5" y2="7.5" gradientUnits="userSpaceOnUse">
<stop stop-color="#7869FE"/>
<stop offset="1" stop-color="#8F83FA"/>
</linearGradient>
<linearGradient id="paint11_linear_8446_11501" x1="5" y1="20.5" x2="21.5" y2="7.5" gradientUnits="userSpaceOnUse">
<stop stop-color="#7869FE"/>
<stop offset="1" stop-color="#8F83FA"/>
</linearGradient>
<linearGradient id="paint12_linear_8446_11501" x1="5" y1="20.5" x2="21.5" y2="7.5" gradientUnits="userSpaceOnUse">
<stop stop-color="#7869FE"/>
<stop offset="1" stop-color="#8F83FA"/>
</linearGradient>
<linearGradient id="paint13_linear_8446_11501" x1="5" y1="20.5" x2="21.5" y2="7.5" gradientUnits="userSpaceOnUse">
<stop stop-color="#7869FE"/>
<stop offset="1" stop-color="#8F83FA"/>
</linearGradient>
<linearGradient id="paint14_linear_8446_11501" x1="5" y1="20.5" x2="21.5" y2="7.5" gradientUnits="userSpaceOnUse">
<stop stop-color="#7869FE"/>
<stop offset="1" stop-color="#8F83FA"/>
</linearGradient>
<linearGradient id="paint15_linear_8446_11501" x1="5" y1="20.5" x2="21.5" y2="7.5" gradientUnits="userSpaceOnUse">
<stop stop-color="#7869FE"/>
<stop offset="1" stop-color="#8F83FA"/>
</linearGradient>
<linearGradient id="paint16_linear_8446_11501" x1="5" y1="20.5" x2="21.5" y2="7.5" gradientUnits="userSpaceOnUse">
<stop stop-color="#7869FE"/>
<stop offset="1" stop-color="#8F83FA"/>
</linearGradient>
<linearGradient id="paint17_linear_8446_11501" x1="5" y1="20.5" x2="21.5" y2="7.5" gradientUnits="userSpaceOnUse">
<stop stop-color="#7869FE"/>
<stop offset="1" stop-color="#8F83FA"/>
</linearGradient>
<linearGradient id="paint18_linear_8446_11501" x1="5" y1="20.5" x2="21.5" y2="7.5" gradientUnits="userSpaceOnUse">
<stop stop-color="#7869FE"/>
<stop offset="1" stop-color="#8F83FA"/>
</linearGradient>
<linearGradient id="paint19_linear_8446_11501" x1="5" y1="20.5" x2="21.5" y2="7.5" gradientUnits="userSpaceOnUse">
<stop stop-color="#7869FE"/>
<stop offset="1" stop-color="#8F83FA"/>
</linearGradient>
<linearGradient id="paint20_linear_8446_11501" x1="5" y1="20.5" x2="21.5" y2="7.5" gradientUnits="userSpaceOnUse">
<stop stop-color="#7869FE"/>
<stop offset="1" stop-color="#8F83FA"/>
</linearGradient>
<linearGradient id="paint21_linear_8446_11501" x1="5" y1="20.5" x2="21.5" y2="7.5" gradientUnits="userSpaceOnUse">
<stop stop-color="#7869FE"/>
<stop offset="1" stop-color="#8F83FA"/>
</linearGradient>
<linearGradient id="paint22_linear_8446_11501" x1="5" y1="20.5" x2="21.5" y2="7.5" gradientUnits="userSpaceOnUse">
<stop stop-color="#7869FE"/>
<stop offset="1" stop-color="#8F83FA"/>
</linearGradient>
<linearGradient id="paint23_linear_8446_11501" x1="5" y1="20.5" x2="21.5" y2="7.5" gradientUnits="userSpaceOnUse">
<stop stop-color="#7869FE"/>
<stop offset="1" stop-color="#8F83FA"/>
</linearGradient>
<linearGradient id="paint24_linear_8446_11501" x1="5" y1="20.5" x2="21.5" y2="7.5" gradientUnits="userSpaceOnUse">
<stop stop-color="#7869FE"/>
<stop offset="1" stop-color="#8F83FA"/>
</linearGradient>
<linearGradient id="paint25_linear_8446_11501" x1="5" y1="20.5" x2="21.5" y2="7.5" gradientUnits="userSpaceOnUse">
<stop stop-color="#7869FE"/>
<stop offset="1" stop-color="#8F83FA"/>
</linearGradient>
<linearGradient id="paint26_linear_8446_11501" x1="5" y1="20.5" x2="21.5" y2="7.5" gradientUnits="userSpaceOnUse">
<stop stop-color="#7869FE"/>
<stop offset="1" stop-color="#8F83FA"/>
</linearGradient>
<linearGradient id="paint27_linear_8446_11501" x1="5" y1="20.5" x2="21.5" y2="7.5" gradientUnits="userSpaceOnUse">
<stop stop-color="#7869FE"/>
<stop offset="1" stop-color="#8F83FA"/>
</linearGradient>
<linearGradient id="paint28_linear_8446_11501" x1="5" y1="20.5" x2="21.5" y2="7.5" gradientUnits="userSpaceOnUse">
<stop stop-color="#7869FE"/>
<stop offset="1" stop-color="#8F83FA"/>
</linearGradient>
<linearGradient id="paint29_linear_8446_11501" x1="5" y1="20.5" x2="21.5" y2="7.5" gradientUnits="userSpaceOnUse">
<stop stop-color="#7869FE"/>
<stop offset="1" stop-color="#8F83FA"/>
</linearGradient>
<linearGradient id="paint30_linear_8446_11501" x1="5" y1="20.5" x2="21.5" y2="7.5" gradientUnits="userSpaceOnUse">
<stop stop-color="#7869FE"/>
<stop offset="1" stop-color="#8F83FA"/>
</linearGradient>
<linearGradient id="paint31_linear_8446_11501" x1="5" y1="20.5" x2="21.5" y2="7.5" gradientUnits="userSpaceOnUse">
<stop stop-color="#7869FE"/>
<stop offset="1" stop-color="#8F83FA"/>
</linearGradient>
<linearGradient id="paint32_linear_8446_11501" x1="5" y1="20.5" x2="21.5" y2="7.5" gradientUnits="userSpaceOnUse">
<stop stop-color="#7869FE"/>
<stop offset="1" stop-color="#8F83FA"/>
</linearGradient>
<linearGradient id="paint33_linear_8446_11501" x1="5" y1="20.5" x2="21.5" y2="7.5" gradientUnits="userSpaceOnUse">
<stop stop-color="#7869FE"/>
<stop offset="1" stop-color="#8F83FA"/>
</linearGradient>
<linearGradient id="paint34_linear_8446_11501" x1="5" y1="20.5" x2="21.5" y2="7.5" gradientUnits="userSpaceOnUse">
<stop stop-color="#7869FE"/>
<stop offset="1" stop-color="#8F83FA"/>
</linearGradient>
<linearGradient id="paint35_linear_8446_11501" x1="5" y1="20.5" x2="21.5" y2="7.5" gradientUnits="userSpaceOnUse">
<stop stop-color="#7869FE"/>
<stop offset="1" stop-color="#8F83FA"/>
</linearGradient>
<linearGradient id="paint36_linear_8446_11501" x1="5" y1="20.5" x2="21.5" y2="7.5" gradientUnits="userSpaceOnUse">
<stop stop-color="#7869FE"/>
<stop offset="1" stop-color="#8F83FA"/>
</linearGradient>
<linearGradient id="paint37_linear_8446_11501" x1="5" y1="20.5" x2="21.5" y2="7.5" gradientUnits="userSpaceOnUse">
<stop stop-color="#7869FE"/>
<stop offset="1" stop-color="#8F83FA"/>
</linearGradient>
<linearGradient id="paint38_linear_8446_11501" x1="5" y1="20.5" x2="21.5" y2="7.5" gradientUnits="userSpaceOnUse">
<stop stop-color="#7869FE"/>
<stop offset="1" stop-color="#8F83FA"/>
</linearGradient>
<linearGradient id="paint39_linear_8446_11501" x1="5" y1="20.5" x2="21.5" y2="7.5" gradientUnits="userSpaceOnUse">
<stop stop-color="#7869FE"/>
<stop offset="1" stop-color="#8F83FA"/>
</linearGradient>
<linearGradient id="paint40_linear_8446_11501" x1="5" y1="20.5" x2="21.5" y2="7.5" gradientUnits="userSpaceOnUse">
<stop stop-color="#7869FE"/>
<stop offset="1" stop-color="#8F83FA"/>
</linearGradient>
<linearGradient id="paint41_linear_8446_11501" x1="5" y1="20.5" x2="21.5" y2="7.5" gradientUnits="userSpaceOnUse">
<stop stop-color="#7869FE"/>
<stop offset="1" stop-color="#8F83FA"/>
</linearGradient>
<linearGradient id="paint42_linear_8446_11501" x1="5" y1="20.5" x2="21.5" y2="7.5" gradientUnits="userSpaceOnUse">
<stop stop-color="#7869FE"/>
<stop offset="1" stop-color="#8F83FA"/>
</linearGradient>
<linearGradient id="paint43_linear_8446_11501" x1="5" y1="20.5" x2="21.5" y2="7.5" gradientUnits="userSpaceOnUse">
<stop stop-color="#7869FE"/>
<stop offset="1" stop-color="#8F83FA"/>
</linearGradient>
<linearGradient id="paint44_linear_8446_11501" x1="5" y1="20.5" x2="21.5" y2="7.5" gradientUnits="userSpaceOnUse">
<stop stop-color="#7869FE"/>
<stop offset="1" stop-color="#8F83FA"/>
</linearGradient>
<radialGradient id="paint45_radial_8446_11501" cx="0" cy="0" r="1" gradientUnits="userSpaceOnUse" gradientTransform="translate(11.9989 11.9996) scale(10.6143 10.6103)">
<stop offset="0.1358" stop-color="#FF4F5A"/>
<stop offset="0.614632" stop-color="#924BCA"/>
<stop offset="0.693786" stop-color="#7E41CC"/>
<stop offset="0.7498" stop-color="#5C36AE"/>
<stop offset="0.7623" stop-color="#4C35AC"/>
<stop offset="0.7778" stop-color="#3C2AAB"/>
<stop offset="0.792701" stop-color="#5C47DB"/>
<stop offset="0.8078" stop-color="#6048F5"/>
<stop offset="0.8331" stop-color="#735EF9"/>
<stop offset="0.9109" stop-color="#796DFF"/>
<stop offset="0.9233" stop-color="#766AFF"/>
<stop offset="0.9623" stop-color="#6C60FA"/>
<stop offset="0.9644" stop-color="#6C60FF"/>
<stop offset="0.9828" stop-color="#9C6DFF"/>
<stop offset="1" stop-color="#A189FF"/>
</radialGradient>
<linearGradient id="paint46_linear_8446_11501" x1="22" y1="15" x2="15.9716" y2="3.66181" gradientUnits="userSpaceOnUse">
<stop stop-color="white" stop-opacity="0"/>
<stop offset="0.500557" stop-color="white"/>
<stop offset="1" stop-color="white" stop-opacity="0"/>
</linearGradient>
</defs>
</svg>
