<svg width="22" height="22" fill="none" xmlns="http://www.w3.org/2000/svg"><path d="m11.1.393-.095-.296a.115.115 0 0 0-.099-.057l-.95-.002a.113.113 0 0 0-.1.061L9.75.446l.003.019c.41-.049.823-.076 1.245-.076.034 0 .068.002.101.004ZM1.196 6.202a.12.12 0 0 0-.095.063l-.418.853a.113.113 0 0 0 .01.118l.265.246.021.006c.15-.427.326-.843.528-1.244l-.311-.042ZM2.387 17.693a.117.117 0 0 0 .017.113l.584.75c.025.034.067.05.111.042l.336-.13.013-.012c-.315-.32-.611-.66-.885-1.02l-.176.257ZM13.24 21.66c.027.03.069.042.107.036l.928-.196a.115.115 0 0 0 .086-.08l.03-.361-.002-.006c-.423.143-.855.26-1.3.35l.15.257ZM21.565 13.648a.11.11 0 0 0 .078-.082l.23-.922a.116.116 0 0 0-.033-.113l-.31-.185h-.005c-.057.45-.139.89-.25 1.321l.29-.019ZM18.01 2.656a.117.117 0 0 0-.04-.107l-.727-.611a.119.119 0 0 0-.117-.02l-.303.198-.006.01c.376.249.735.52 1.078.812l.115-.282ZM6.568 1.031a.115.115 0 0 0-.114-.01l-.867.384a.114.114 0 0 0-.067.097l.046.36.01.018c.385-.229.786-.435 1.2-.615l-.208-.234ZM5.856 20.611c.002.04.025.078.06.097l.84.447a.118.118 0 0 0 .117-.006l.254-.257.004-.012c-.42-.164-.83-.353-1.223-.57l-.052.301ZM17.384 19.824c.038.017.08.01.114-.013l.769-.556a.116.116 0 0 0 .046-.11l-.12-.34-.004-.004c-.33.304-.68.586-1.046.847l.241.176ZM21.73 9.119a.11.11 0 0 0 .039-.107l-.164-.935a.117.117 0 0 0-.078-.09l-.36-.043-.003.002c.128.427.229.864.302 1.311l.265-.138ZM14.01.523a.116.116 0 0 0-.08-.082L13.02.18a.11.11 0 0 0-.114.031l-.195.305-.002.015c.447.071.886.174 1.313.3l-.01-.307ZM2.895 3.692a.113.113 0 0 0-.107.036l-.636.705a.116.116 0 0 0-.024.116l.187.309.021.015c.261-.368.545-.719.847-1.05l-.288-.131ZM.874 15.065a.115.115 0 0 0-.014.113l.355.883c.014.04.052.067.094.071l.36-.034.014-.008a10.972 10.972 0 0 1-.57-1.223l-.239.198ZM10.14 21.571l.073.296a.116.116 0 0 0 .095.064l.947.067a.114.114 0 0 0 .105-.055l.128-.338v-.01a9.696 9.696 0 0 1-1.349-.023ZM20.424 16.46a.12.12 0 0 0 .098-.057l.477-.821a.113.113 0 0 0-.002-.118l-.248-.263h-.002c-.178.414-.384.815-.611 1.2l.288.059ZM20.037 4.914a.115.115 0 0 0-.009-.113l-.53-.788a.114.114 0 0 0-.106-.05l-.345.107-.008.006c.292.34.565.697.813 1.074l.185-.236ZM9.487.2a.113.113 0 0 0-.105-.042l-.941.13a.116.116 0 0 0-.092.073L8.294.72l.004.016c.43-.113.874-.197 1.326-.256l-.137-.28ZM.624 7.612a.114.114 0 0 0-.084.076l-.294.903a.118.118 0 0 0 .027.116l.297.206.02.004c.089-.445.209-.88.35-1.305H.623ZM3.403 18.826a.116.116 0 0 0 .031.11l.683.661c.03.03.074.04.116.027l.315-.176.01-.013c-.357-.273-.697-.57-1.018-.884l-.137.275ZM14.703 21.244a.113.113 0 0 0 .11.019l.894-.324a.116.116 0 0 0 .073-.092l-.02-.361-.003-.005c-.399.202-.813.379-1.24.528l.186.235ZM21.95 11.008l-.335-.139h-.006c0 .044.004.088.004.133 0 .41-.025.815-.071 1.212l.29-.061a.115.115 0 0 0 .067-.093l.1-.945a.114.114 0 0 0-.05-.107ZM16.78 1.761a.119.119 0 0 0-.054-.1l-.804-.505a.113.113 0 0 0-.118-.002l-.271.24-.004.01c.407.194.8.412 1.178.654l.074-.297ZM5.225 1.744a.115.115 0 0 0-.113.005l-.807.502a.118.118 0 0 0-.055.105l.095.349.014.018c.351-.281.719-.542 1.103-.777l-.237-.202ZM.143 12.12a.112.112 0 0 0-.046.102l.099.946a.115.115 0 0 0 .071.094l.355.068.021-.005c-.097-.434-.168-.88-.21-1.334l-.29.128ZM7.245 21.233c.009.04.036.074.074.087l.893.325c.04.015.084.007.115-.023l.217-.29.002-.012a10.672 10.672 0 0 1-1.29-.393l-.01.306ZM18.288 18.708l.263.14c.04.011.082 0 .109-.027l.685-.66a.12.12 0 0 0 .031-.113l-.166-.321-.002-.002c-.283.346-.592.674-.92.983ZM21.365 7.644a.114.114 0 0 0 .023-.111l-.292-.904a.115.115 0 0 0-.088-.077l-.361.008-.005.002c.187.406.351.824.488 1.255l.235-.173ZM12.522.204a.118.118 0 0 0-.09-.07L11.491 0a.116.116 0 0 0-.11.046l-.15.328v.02c.455.01.903.045 1.342.11l-.05-.3ZM1.958 4.887a.118.118 0 0 0-.103.05l-.531.788a.118.118 0 0 0-.007.118l.23.28.02.01c.208-.402.44-.788.696-1.158l-.305-.088ZM1.538 16.432a.12.12 0 0 0 0 .114l.473.823c.02.036.06.06.103.057l.353-.084.014-.01c-.268-.36-.512-.74-.733-1.133l-.21.233ZM11.735 21.87a.118.118 0 0 0 .103.05l.947-.065a.114.114 0 0 0 .097-.067l.08-.353-.002-.008c-.437.082-.883.138-1.339.164l.114.28ZM21.092 15.094a.116.116 0 0 0 .088-.07l.358-.88a.115.115 0 0 0-.02-.117l-.28-.227h-.003c-.12.437-.265.861-.435 1.273l.292.021ZM18.952 3.976l.151-.26a.117.117 0 0 0-.023-.112l-.634-.708a.119.119 0 0 0-.114-.036l-.328.155-.008.009c.338.298.658.615.956.952ZM8 .515a.12.12 0 0 0-.112-.028l-.914.26a.115.115 0 0 0-.08.087l-.004.361.006.017c.412-.172.839-.32 1.276-.439L7.999.515ZM.254 9.087a.12.12 0 0 0-.073.088l-.166.935a.114.114 0 0 0 .042.112l.323.161.024.002c.025-.456.081-.901.163-1.34l-.313.042ZM.4 10.514l-.305.086a.11.11 0 0 0-.06.097l-.035.95a.115.115 0 0 0 .057.102l.342.116.026-.002A9.352 9.352 0 0 1 .4 10.514ZM4.567 19.805c-.004.04.015.08.047.103l.767.559c.033.025.08.029.117.01l.288-.218.006-.013c-.393-.22-.77-.466-1.13-.733l-.095.292ZM16.094 20.628a.115.115 0 0 0 .113.004l.84-.445a.113.113 0 0 0 .062-.101l-.072-.355-.002-.004c-.367.254-.754.487-1.153.693l.212.208ZM21.887 10.631a.117.117 0 0 0 .052-.1l-.032-.95a.114.114 0 0 0-.065-.099l-.348-.092h-.003c.068.439.103.886.116 1.342l.28-.1ZM15.438 1.045a.114.114 0 0 0-.068-.093l-.867-.388a.114.114 0 0 0-.118.014l-.235.274-.002.01c.433.134.85.298 1.258.483l.032-.3ZM4.258 2.803l-.265-.166a.113.113 0 0 0-.111.021l-.73.607a.116.116 0 0 0-.037.112l.143.332.019.016c.307-.325.634-.636.981-.922ZM.406 13.617c-.03.03-.04.07-.032.11l.23.922c.01.04.041.073.083.084l.362.017.018-.007a10.569 10.569 0 0 1-.392-1.292l-.27.166ZM8.706 21.654a.117.117 0 0 0 .084.076l.929.2a.116.116 0 0 0 .111-.039l.174-.317v-.01a10.711 10.711 0 0 1-1.332-.21l.034.3ZM19.572 17.718c.04.005.08-.01.105-.041l.587-.748a.118.118 0 0 0 .014-.118l-.208-.296h-.002c-.235.384-.494.752-.775 1.1l.28.104ZM20.796 6.232a.115.115 0 0 0 .008-.114l-.416-.853a.118.118 0 0 0-.099-.065l-.357.059-.006.004c.241.376.464.767.657 1.175l.213-.206Z" fill="#7869FE"/><path d="M11 .389C5.136.389.384 5.139.384 10.999c0 5.86 4.752 10.61 10.614 10.61 5.862 0 10.614-4.75 10.614-10.61 0-5.86-4.752-10.61-10.614-10.61Z" fill="url(#a)"/><path opacity=".5" fill-rule="evenodd" clip-rule="evenodd" d="M2.092 16.416c-.891-1.6-1.423-3.488-1.073-5.397l-.175-.018c-.355 1.934.178 3.857 1.089 5.492.911 1.636 2.637 3.376 5.15 4.225l.069-.15c-2.478-.837-4.17-2.553-5.06-4.152Z" fill="url(#b)"/><g filter="url(#c)"><path fill-rule="evenodd" clip-rule="evenodd" d="M12.596 18.501c-1.866.345-3.815-.012-5.658-.859l-.066.15c1.868.86 3.853 1.225 5.76.873 1.907-.352 3.729-1.422 5.27-3.42l-.134-.104c-1.52 1.97-3.308 3.016-5.172 3.36Z" fill="url(#d)"/></g><g filter="url(#e)"><path fill-rule="evenodd" clip-rule="evenodd" d="M4.76 15.56c-1.183-1.417-1.754-3.23-1.82-5.18l-.171.015c.067 1.976.646 3.823 1.856 5.271 1.21 1.45 3.048 2.494 5.619 2.871l.034-.161c-2.534-.372-4.334-1.4-5.517-2.816Z" fill="url(#f)"/></g><g opacity=".4" filter="url(#g)"><path fill-rule="evenodd" clip-rule="evenodd" d="M12.404 16.347c-1.623.155-3.26-.294-4.766-1.155l-.069.123c1.527.873 3.194 1.333 4.852 1.174 1.66-.159 3.305-.938 4.785-2.532l-.105-.099c-1.46 1.572-3.075 2.333-4.697 2.489Z" fill="url(#h)"/></g><path fill-rule="evenodd" clip-rule="evenodd" d="M20.427 6.8c-.991-1.944-2.356-3.843-4.476-4.783l.098-.183c2.149.953 3.548 2.876 4.56 4.863 1.015 1.988 1.278 4.491.45 7.512l-.195-.033c.817-2.979.554-5.433-.437-7.376Z" fill="url(#i)"/><path opacity=".7" fill-rule="evenodd" clip-rule="evenodd" d="M18.11 6.98c-.963-1.441-2.39-2.939-4.452-3.635l.095-.136c2.09.706 3.55 2.222 4.535 3.693.985 1.473 1.449 4.177.644 6.415l-.19-.025c.794-2.206.332-4.874-.632-6.313Z" fill="url(#j)"/><path d="M11.863 9.968h.944L11 5 9.193 9.968h1.049a.31.31 0 0 0 .285-.212l.473-1.3.434 1.193c.07.193.24.32.429.32ZM12.646 12.982 11 11.913l-1.646 1.069.543-1.493a.356.356 0 0 0-.126-.415l-.788-.526L7 16l4-2.597L15 16l-1.982-5.452-.789.526a.356.356 0 0 0-.126.415l.543 1.492Z" fill="#fff"/><defs><linearGradient id="b" x1="6.947" y1="20.365" x2="2.037" y2="11.192" gradientUnits="userSpaceOnUse"><stop stop-color="#fff" stop-opacity="0"/><stop offset=".488" stop-color="#fff" stop-opacity=".517"/><stop offset="1" stop-color="#fff" stop-opacity="0"/></linearGradient><linearGradient id="d" x1="17.919" y1="15.288" x2="7.521" y2="18.015" gradientUnits="userSpaceOnUse"><stop stop-opacity=".39"/><stop offset=".311" stop-opacity=".94"/><stop offset=".488" stop-opacity=".9"/><stop offset=".67" stop-opacity=".71"/><stop offset="1" stop-opacity=".26"/></linearGradient><linearGradient id="f" x1="10.212" y1="18.572" x2="3.428" y2="10.568" gradientUnits="userSpaceOnUse"><stop stop-opacity=".39"/><stop offset=".311" stop-opacity=".87"/><stop offset=".488" stop-opacity=".71"/><stop offset=".67"/><stop offset="1" stop-opacity=".26"/></linearGradient><linearGradient id="h" x1="17.218" y1="13.995" x2="8.095" y2="15.482" gradientUnits="userSpaceOnUse"><stop stop-opacity=".79"/><stop offset=".488" stop-opacity=".517"/><stop offset="1" stop-opacity=".72"/></linearGradient><linearGradient id="i" x1="21.177" y1="15.959" x2="14.877" y2="2.676" gradientUnits="userSpaceOnUse"><stop stop-color="#fff" stop-opacity="0"/><stop offset=".488" stop-color="#fff" stop-opacity=".517"/><stop offset="1" stop-color="#fff" stop-opacity="0"/></linearGradient><linearGradient id="j" x1="18.655" y1="13.776" x2="14.802" y2="3.115" gradientUnits="userSpaceOnUse"><stop stop-color="#fff" stop-opacity="0"/><stop offset=".453" stop-color="#fff" stop-opacity=".57"/><stop offset=".578" stop-color="#fff" stop-opacity=".44"/><stop offset=".703" stop-color="#fff" stop-opacity=".29"/><stop offset="1" stop-color="#fff" stop-opacity="0"/></linearGradient><filter id="c" x="5.872" y="14.141" width="13.03" height="5.657" filterUnits="userSpaceOnUse" color-interpolation-filters="sRGB"><feFlood flood-opacity="0" result="BackgroundImageFix"/><feBlend in="SourceGraphic" in2="BackgroundImageFix" result="shape"/><feGaussianBlur stdDeviation=".5" result="effect1_foregroundBlur_9428_8958"/></filter><filter id="e" x="1.769" y="9.381" width="9.51" height="10.156" filterUnits="userSpaceOnUse" color-interpolation-filters="sRGB"><feFlood flood-opacity="0" result="BackgroundImageFix"/><feBlend in="SourceGraphic" in2="BackgroundImageFix" result="shape"/><feGaussianBlur stdDeviation=".5" result="effect1_foregroundBlur_9428_8958"/></filter><filter id="g" x="6.569" y="12.858" width="11.637" height="4.662" filterUnits="userSpaceOnUse" color-interpolation-filters="sRGB"><feFlood flood-opacity="0" result="BackgroundImageFix"/><feBlend in="SourceGraphic" in2="BackgroundImageFix" result="shape"/><feGaussianBlur stdDeviation=".5" result="effect1_foregroundBlur_9428_8958"/></filter><radialGradient id="a" cx="0" cy="0" r="1" gradientUnits="userSpaceOnUse" gradientTransform="matrix(10.6143 0 0 10.6103 10.999 11)"><stop offset=".136" stop-color="#FF4F5A"/><stop offset=".615" stop-color="#924BCA"/><stop offset=".694" stop-color="#7E41CC"/><stop offset=".75" stop-color="#5C36AE"/><stop offset=".762" stop-color="#4C35AC"/><stop offset=".778" stop-color="#3C2AAB"/><stop offset=".808" stop-color="#6048F5"/><stop offset=".833" stop-color="#735EF9"/><stop offset=".911" stop-color="#796DFF"/><stop offset=".923" stop-color="#766AFF"/><stop offset=".962" stop-color="#6C60FA"/><stop offset=".964" stop-color="#6C60FF"/><stop offset=".983" stop-color="#9C6DFF"/><stop offset="1" stop-color="#A189FF"/></radialGradient></defs></svg>