<svg width="44" height="44" fill="none" xmlns="http://www.w3.org/2000/svg"><path d="m22.182 2.554-.173-.544a.21.21 0 0 0-.181-.104l-1.741-.003a.207.207 0 0 0-.185.111l-.193.636.004.035c.751-.09 1.51-.14 2.284-.14.062 0 .124.005.185.009ZM4.025 13.204a.221.221 0 0 0-.173.116l-.766 1.563a.208.208 0 0 0 .019.216l.485.45.039.013c.273-.782.597-1.545.966-2.28l-.57-.078ZM6.21 34.27a.214.214 0 0 0 .03.208l1.07 1.375a.204.204 0 0 0 .205.077l.616-.238.023-.023A19.237 19.237 0 0 1 6.533 33.8l-.324.47ZM26.106 41.543c.05.054.127.077.196.065l1.703-.358a.21.21 0 0 0 .158-.147l.054-.662-.004-.012c-.774.262-1.568.478-2.385.644l.278.47ZM41.369 26.855a.201.201 0 0 0 .142-.15l.424-1.691a.213.213 0 0 0-.062-.208l-.57-.339h-.007a19.355 19.355 0 0 1-.459 2.423l.532-.035ZM34.852 6.702a.214.214 0 0 0-.073-.196l-1.333-1.121a.217.217 0 0 0-.215-.035l-.555.362-.012.02c.69.454 1.349.95 1.976 1.486l.212-.516ZM13.874 3.725a.211.211 0 0 0-.208-.02l-1.59.705c-.07.031-.12.1-.124.177l.085.659.02.035c.704-.42 1.44-.798 2.199-1.129l-.382-.427ZM12.57 39.62a.215.215 0 0 0 .11.178l1.538.82c.069.035.15.03.215-.012l.466-.47.008-.023c-.77-.3-1.521-.647-2.242-1.043l-.096.55ZM33.705 38.176c.069.03.146.02.208-.023l1.41-1.02a.213.213 0 0 0 .084-.201l-.22-.624-.007-.008a19.521 19.521 0 0 1-1.918 1.552l.443.324ZM41.673 18.55a.203.203 0 0 0 .07-.196l-.3-1.714a.215.215 0 0 0-.143-.166l-.66-.077-.007.004c.235.782.42 1.583.555 2.404l.485-.255ZM27.52 2.792a.213.213 0 0 0-.147-.15L25.7 2.161a.202.202 0 0 0-.208.057l-.358.559-.004.027c.82.131 1.625.32 2.407.55l-.019-.562ZM7.142 8.601a.206.206 0 0 0-.197.065L5.778 9.961a.213.213 0 0 0-.042.212l.342.566.039.027c.478-.674.998-1.318 1.552-1.926L7.142 8.6ZM3.436 29.451a.212.212 0 0 0-.027.208l.651 1.618a.206.206 0 0 0 .173.131l.66-.061.026-.016a20.12 20.12 0 0 1-1.044-2.242l-.439.362ZM20.422 41.38l.135.544c.035.066.1.112.173.115l1.738.124a.21.21 0 0 0 .192-.1l.235-.62v-.02a17.778 17.778 0 0 1-2.473-.042ZM39.277 32.01a.219.219 0 0 0 .18-.105l.875-1.506a.207.207 0 0 0-.004-.216l-.454-.481h-.004a19.661 19.661 0 0 1-1.121 2.2l.528.107ZM38.567 10.843a.21.21 0 0 0-.015-.208l-.97-1.445a.21.21 0 0 0-.197-.092l-.632.196-.016.012a19.537 19.537 0 0 1 1.491 1.968l.34-.431ZM19.227 2.2a.207.207 0 0 0-.193-.078l-1.726.24a.212.212 0 0 0-.169.134l-.1.655.008.03c.79-.207 1.602-.362 2.43-.47l-.25-.512ZM2.977 15.789a.209.209 0 0 0-.154.139l-.539 1.656a.216.216 0 0 0 .05.212l.543.377.039.008a19.86 19.86 0 0 1 .64-2.392h-.579ZM8.072 36.346a.212.212 0 0 0 .058.2l1.252 1.214a.212.212 0 0 0 .212.05l.577-.323.02-.023a20.202 20.202 0 0 1-1.868-1.622l-.25.504ZM28.788 40.78a.207.207 0 0 0 .204.035l1.637-.594a.212.212 0 0 0 .135-.17l-.039-.662-.004-.007c-.731.37-1.49.693-2.272.966l.339.432ZM42.074 22.014l-.612-.255h-.012c0 .081.008.162.008.243 0 .751-.047 1.495-.131 2.223l.531-.112a.21.21 0 0 0 .123-.17l.185-1.733a.21.21 0 0 0-.092-.197ZM32.598 5.061a.217.217 0 0 0-.1-.185l-1.475-.924a.207.207 0 0 0-.216-.004l-.497.439-.008.02c.747.354 1.468.754 2.161 1.197l.135-.543ZM11.412 5.03a.21.21 0 0 0-.208.008l-1.479.92a.217.217 0 0 0-.1.193l.173.64.027.034A19.495 19.495 0 0 1 11.848 5.4l-.436-.37ZM2.096 24.051a.206.206 0 0 0-.085.189l.18 1.733a.211.211 0 0 0 .132.174l.65.123.04-.008a19.609 19.609 0 0 1-.386-2.446l-.531.235ZM15.116 40.76a.209.209 0 0 0 .135.159l1.637.597a.205.205 0 0 0 .212-.043l.396-.531.004-.023a19.51 19.51 0 0 1-2.365-.72l-.019.562ZM35.362 36.13l.481.259c.073.019.15 0 .2-.05l1.256-1.21a.22.22 0 0 0 .058-.208l-.304-.59-.004-.003a19.126 19.126 0 0 1-1.687 1.803ZM41.002 15.847a.21.21 0 0 0 .043-.205l-.535-1.656a.21.21 0 0 0-.162-.143l-.663.016-.008.004c.343.743.644 1.51.894 2.3l.431-.316ZM24.79 2.207a.216.216 0 0 0-.165-.127L22.9 1.833a.214.214 0 0 0-.2.085l-.278.6v.036c.836.019 1.656.084 2.461.204l-.092-.551ZM5.423 10.793a.217.217 0 0 0-.188.092L4.26 12.33a.216.216 0 0 0-.011.215l.42.513.038.019a19.34 19.34 0 0 1 1.275-2.122l-.559-.162ZM4.653 31.96a.221.221 0 0 0 0 .207l.867 1.51a.21.21 0 0 0 .189.104l.647-.154.027-.02a18.93 18.93 0 0 1-1.345-2.075l-.385.427ZM23.347 41.928a.217.217 0 0 0 .189.092l1.737-.12a.209.209 0 0 0 .177-.122l.146-.648-.003-.015c-.802.15-1.618.254-2.454.3l.208.513ZM40.502 29.505a.212.212 0 0 0 .162-.127l.654-1.614a.21.21 0 0 0-.034-.215l-.516-.416h-.004c-.22.8-.486 1.579-.798 2.334l.536.038ZM36.579 9.121l.277-.478a.215.215 0 0 0-.042-.204L35.65 7.141a.218.218 0 0 0-.209-.065l-.6.285-.016.015c.62.547 1.206 1.129 1.753 1.745ZM16.499 2.777c-.054-.05-.131-.07-.204-.05l-1.676.477a.21.21 0 0 0-.146.158l-.008.663.011.03a19.231 19.231 0 0 1 2.339-.804l-.316-.474ZM2.3 18.493a.222.222 0 0 0-.135.162l-.305 1.714a.21.21 0 0 0 .077.204l.594.296.042.004c.046-.836.15-1.652.3-2.457l-.574.077ZM2.565 21.108l-.558.158a.203.203 0 0 0-.108.177l-.066 1.741a.21.21 0 0 0 .105.19l.627.21.047-.003a19.55 19.55 0 0 1-.07-1.583c0-.297.008-.593.023-.89ZM10.207 38.141a.21.21 0 0 0 .085.19l1.406 1.024a.208.208 0 0 0 .215.019l.528-.4.012-.024a19.484 19.484 0 0 1-2.073-1.344l-.173.535ZM31.339 39.651a.21.21 0 0 0 .208.008l1.54-.817a.206.206 0 0 0 .112-.184l-.13-.651-.005-.008c-.674.466-1.382.893-2.114 1.27l.389.382ZM41.958 21.324a.214.214 0 0 0 .097-.185l-.058-1.741a.208.208 0 0 0-.12-.181l-.639-.17h-.004c.123.805.189 1.626.212 2.462l.512-.185ZM30.136 3.748a.21.21 0 0 0-.123-.17l-1.591-.712a.21.21 0 0 0-.216.027l-.431.5-.004.02c.793.246 1.56.547 2.307.886l.058-.551ZM9.64 6.972l-.486-.305a.206.206 0 0 0-.204.039L7.614 7.819a.213.213 0 0 0-.07.204l.262.609.035.03a19.658 19.658 0 0 1 1.799-1.69ZM2.577 26.797a.215.215 0 0 0-.058.2l.42 1.692c.02.073.077.135.154.154l.663.03.034-.01a19.377 19.377 0 0 1-.72-2.37l-.493.305ZM17.794 41.531c.023.07.085.123.154.139l1.703.366a.213.213 0 0 0 .204-.07l.32-.581v-.02a19.655 19.655 0 0 1-2.443-.385l.062.551ZM37.716 34.316a.216.216 0 0 0 .193-.077l1.074-1.37a.217.217 0 0 0 .027-.216l-.38-.544h-.005a19.01 19.01 0 0 1-1.421 2.019l.512.188ZM39.958 13.258a.211.211 0 0 0 .016-.208l-.763-1.564a.216.216 0 0 0-.181-.12l-.655.109-.011.007c.443.69.85 1.406 1.205 2.154l.39-.378Z" fill="#7869FE"/><path d="M21.998 2.546c-10.747 0-19.46 8.71-19.46 19.452 0 10.743 8.713 19.452 19.46 19.452 10.747 0 19.46-8.709 19.46-19.452 0-10.743-8.713-19.452-19.46-19.452Z" fill="url(#a)"/><path opacity=".5" fill-rule="evenodd" clip-rule="evenodd" d="M5.669 31.927c-1.634-2.933-2.61-6.395-1.967-9.893L3.38 22c-.65 3.546.326 7.071 1.995 10.069 1.671 3 4.835 6.19 9.442 7.745l.127-.276c-4.542-1.533-7.643-4.68-9.276-7.611Z" fill="url(#b)"/><g filter="url(#c)"><path fill-rule="evenodd" clip-rule="evenodd" d="M24.926 35.75c-3.42.632-6.994-.022-10.373-1.575l-.12.277c3.423 1.574 7.063 2.244 10.558 1.599 3.497-.646 6.837-2.607 9.662-6.27l-.245-.192c-2.786 3.613-6.064 5.53-9.482 6.162Z" fill="url(#d)"/></g><g filter="url(#e)"><path fill-rule="evenodd" clip-rule="evenodd" d="M10.561 30.36c-2.17-2.598-3.218-5.921-3.339-9.496l-.313.026c.123 3.622 1.185 7.009 3.404 9.664 2.22 2.657 5.587 4.572 10.3 5.263l.064-.295c-4.647-.682-7.947-2.565-10.116-5.162Z" fill="url(#f)"/></g><g opacity=".4" filter="url(#g)"><path fill-rule="evenodd" clip-rule="evenodd" d="M24.575 31.8c-2.976.286-5.977-.538-8.739-2.117l-.126.227c2.799 1.6 5.855 2.444 8.896 2.152 3.043-.292 6.058-1.72 8.773-4.642l-.194-.181c-2.677 2.881-5.637 4.276-8.61 4.562Z" fill="url(#h)"/></g><path fill-rule="evenodd" clip-rule="evenodd" d="M39.283 14.299c-1.817-3.565-4.319-7.045-8.207-8.769l.18-.336c3.94 1.747 6.504 5.272 8.362 8.915 1.859 3.645 2.342 8.235.823 13.773l-.357-.06c1.497-5.462 1.016-9.961-.8-13.523Z" fill="url(#i)"/><path opacity=".7" fill-rule="evenodd" clip-rule="evenodd" d="M35.036 14.627c-1.767-2.64-4.384-5.386-8.163-6.663l.175-.249c3.83 1.294 6.508 4.073 8.313 6.771 1.807 2.7 2.657 7.658 1.18 11.76l-.346-.045c1.455-4.045.606-8.935-1.16-11.574Z" fill="url(#j)"/><path d="M23.582 20.109h1.73L22 11l-3.312 9.109h1.922c.23 0 .438-.155.523-.39L22 17.334l.796 2.188c.128.354.44.586.786.586ZM25.017 25.633 22 23.674l-3.017 1.959.995-2.737a.653.653 0 0 0-.231-.761l-1.446-.964-3.634 9.996L22 26.406l7.333 4.76-3.634-9.995-1.445.964a.653.653 0 0 0-.232.761l.995 2.737Z" fill="#fff"/><defs><linearGradient id="b" x1="14.57" y1="39.168" x2="5.569" y2="22.35" gradientUnits="userSpaceOnUse"><stop stop-color="#fff" stop-opacity="0"/><stop offset=".488" stop-color="#fff" stop-opacity=".517"/><stop offset="1" stop-color="#fff" stop-opacity="0"/></linearGradient><linearGradient id="d" x1="34.685" y1="29.859" x2="15.623" y2="34.859" gradientUnits="userSpaceOnUse"><stop stop-opacity=".39"/><stop offset=".311" stop-opacity=".94"/><stop offset=".488" stop-opacity=".9"/><stop offset=".67" stop-opacity=".71"/><stop offset="1" stop-opacity=".26"/></linearGradient><linearGradient id="f" x1="20.555" y1="35.881" x2="8.117" y2="21.207" gradientUnits="userSpaceOnUse"><stop stop-opacity=".39"/><stop offset=".311" stop-opacity=".87"/><stop offset=".488" stop-opacity=".71"/><stop offset=".67"/><stop offset="1" stop-opacity=".26"/></linearGradient><linearGradient id="h" x1="33.4" y1="27.49" x2="16.674" y2="30.215" gradientUnits="userSpaceOnUse"><stop stop-opacity=".79"/><stop offset=".488" stop-opacity=".517"/><stop offset="1" stop-opacity=".72"/></linearGradient><linearGradient id="i" x1="40.658" y1="31.09" x2="29.108" y2="6.737" gradientUnits="userSpaceOnUse"><stop stop-color="#fff" stop-opacity="0"/><stop offset=".488" stop-color="#fff" stop-opacity=".517"/><stop offset="1" stop-color="#fff" stop-opacity="0"/></linearGradient><linearGradient id="j" x1="36.034" y1="27.087" x2="28.97" y2="7.544" gradientUnits="userSpaceOnUse"><stop stop-color="#fff" stop-opacity="0"/><stop offset=".453" stop-color="#fff" stop-opacity=".57"/><stop offset=".578" stop-color="#fff" stop-opacity=".44"/><stop offset=".703" stop-color="#fff" stop-opacity=".29"/><stop offset="1" stop-color="#fff" stop-opacity="0"/></linearGradient><filter id="c" x="13.432" y="28.589" width="22.221" height="8.705" filterUnits="userSpaceOnUse" color-interpolation-filters="sRGB"><feFlood flood-opacity="0" result="BackgroundImageFix"/><feBlend in="SourceGraphic" in2="BackgroundImageFix" result="shape"/><feGaussianBlur stdDeviation=".5" result="effect1_foregroundBlur_11246_44101"/></filter><filter id="e" x="5.909" y="19.864" width="15.768" height="16.953" filterUnits="userSpaceOnUse" color-interpolation-filters="sRGB"><feFlood flood-opacity="0" result="BackgroundImageFix"/><feBlend in="SourceGraphic" in2="BackgroundImageFix" result="shape"/><feGaussianBlur stdDeviation=".5" result="effect1_foregroundBlur_11246_44101"/></filter><filter id="g" x="14.71" y="26.239" width="19.668" height="6.88" filterUnits="userSpaceOnUse" color-interpolation-filters="sRGB"><feFlood flood-opacity="0" result="BackgroundImageFix"/><feBlend in="SourceGraphic" in2="BackgroundImageFix" result="shape"/><feGaussianBlur stdDeviation=".5" result="effect1_foregroundBlur_11246_44101"/></filter><radialGradient id="a" cx="0" cy="0" r="1" gradientUnits="userSpaceOnUse" gradientTransform="matrix(19.4596 0 0 19.4521 21.998 22)"><stop offset=".136" stop-color="#FF4F5A"/><stop offset=".615" stop-color="#924BCA"/><stop offset=".694" stop-color="#7E41CC"/><stop offset=".75" stop-color="#5C36AE"/><stop offset=".762" stop-color="#4C35AC"/><stop offset=".778" stop-color="#3C2AAB"/><stop offset=".808" stop-color="#6048F5"/><stop offset=".833" stop-color="#735EF9"/><stop offset=".911" stop-color="#796DFF"/><stop offset=".923" stop-color="#766AFF"/><stop offset=".962" stop-color="#6C60FA"/><stop offset=".964" stop-color="#6C60FF"/><stop offset=".983" stop-color="#9C6DFF"/><stop offset="1" stop-color="#A189FF"/></radialGradient></defs></svg>