<svg width="48" height="48" viewBox="0 0 48 48" fill="none" xmlns="http://www.w3.org/2000/svg">
<path d="M27.14 22.2404H30.5763L24 5.7998L17.4238 22.2404H21.2393C21.6973 22.2404 22.1091 21.9616 22.2793 21.5364L24.0001 17.2343L25.5801 21.1844C25.8353 21.8222 26.4529 22.2404 27.14 22.2404Z" fill="url(#paint0_linear_9471_7220)"/>
<path d="M29.9909 32.211L23.9999 28.6754L18.0091 32.211L19.985 27.2713C20.1885 26.7627 19.9942 26.1816 19.5257 25.8975L16.6564 24.1582L9.43994 42.1994L23.9999 33.6064L38.5599 42.1992L31.3436 24.1582L28.4742 25.8975C28.0059 26.1816 27.8115 26.7627 28.015 27.2713L29.9909 32.211Z" fill="url(#paint1_linear_9471_7220)"/>
<defs>
<linearGradient id="paint0_linear_9471_7220" x1="24" y1="18.1198" x2="24" y2="41.6398" gradientUnits="userSpaceOnUse">
<stop stop-color="#FF424E"/>
<stop offset="1" stop-color="#5E5CE6"/>
</linearGradient>
<linearGradient id="paint1_linear_9471_7220" x1="23.9999" y1="18.1194" x2="23.9999" y2="41.6394" gradientUnits="userSpaceOnUse">
<stop stop-color="#FF424E"/>
<stop offset="1" stop-color="#5E5CE6"/>
</linearGradient>
</defs>
</svg>
