<svg width="44" height="44" viewBox="0 0 44 44" fill="none" xmlns="http://www.w3.org/2000/svg">
<path d="M22.0004 39.5994C31.7206 39.5994 39.6004 31.7196 39.6004 21.9994C39.6004 12.2792 31.7206 4.39941 22.0004 4.39941C12.2802 4.39941 4.40039 12.2792 4.40039 21.9994C4.40039 31.7196 12.2802 39.5994 22.0004 39.5994Z" fill="white"/>
<path d="M24.4676 19.0778H27.1676L22.0005 6.16016L16.8335 19.0778H19.8314C20.1912 19.0778 20.5148 18.8587 20.6485 18.5246L22.0006 15.1444L23.242 18.2481C23.4425 18.7492 23.9278 19.0778 24.4676 19.0778Z" fill="url(#paint0_linear_8990_28173)"/>
<path d="M26.7077 26.9122L22.0005 24.1342L17.2934 26.9122L18.8459 23.031C19.0058 22.6314 18.8531 22.1748 18.485 21.9516L16.2306 20.585L10.5605 34.7602L22.0005 28.0086L33.4405 34.7601L27.7705 20.585L25.516 21.9516C25.148 22.1748 24.9953 22.6314 25.1552 23.031L26.7077 26.9122Z" fill="url(#paint1_linear_8990_28173)"/>
<defs>
<linearGradient id="paint0_linear_8990_28173" x1="22.0005" y1="15.8402" x2="22.0005" y2="34.3202" gradientUnits="userSpaceOnUse">
<stop stop-color="#FF424E"/>
<stop offset="1" stop-color="#5E5CE6"/>
</linearGradient>
<linearGradient id="paint1_linear_8990_28173" x1="22.0005" y1="15.8402" x2="22.0005" y2="34.3202" gradientUnits="userSpaceOnUse">
<stop stop-color="#FF424E"/>
<stop offset="1" stop-color="#5E5CE6"/>
</linearGradient>
</defs>
</svg>
